<?xml version="1.0" standalone="no"?>
<!DOCTYPE svg PUBLIC "-//W3C//DTD SVG 20010904//EN"
 "http://www.w3.org/TR/2001/REC-SVG-20010904/DTD/svg10.dtd">
<svg version="1.0" xmlns="http://www.w3.org/2000/svg"
 width="72.000000pt" height="77.000000pt" viewBox="0 0 72.000000 77.000000"
 preserveAspectRatio="xMidYMid meet">

<g transform="translate(0.000000,77.000000) scale(0.100000,-0.100000)"
fill="#000000" stroke="none">
<path d="M340 742 c0 -9 -7 -11 -20 -7 -14 4 -18 2 -15 -7 4 -9 -13 -18 -53
-30 -106 -31 -200 -121 -237 -227 -22 -64 -19 -168 6 -238 30 -81 122 -172
204 -203 49 -18 75 -21 141 -18 104 5 173 38 243 113 70 77 94 146 89 251 -5
103 -39 175 -115 244 -48 44 -139 90 -178 90 -8 0 -15 8 -15 17 0 13 -3 14
-12 5 -9 -9 -14 -7 -24 6 -9 12 -13 13 -14 4z m38 -38 c41 -29 23 -84 -28 -84
-32 0 -50 17 -50 46 0 20 32 54 50 54 3 0 16 -7 28 -16z m-101 -28 c-16 -12
-16 -14 -1 -20 13 -5 14 -9 4 -21 -10 -12 -9 -15 6 -16 11 0 -1 -8 -25 -16
-95 -33 -173 -149 -169 -247 1 -40 1 -40 7 9 6 48 7 50 44 56 45 7 49 -2 7
-18 -16 -6 -30 -18 -30 -27 0 -21 6 -20 46 5 39 24 47 10 9 -15 -26 -17 -34
-46 -13 -46 7 0 23 12 36 28 18 20 22 22 16 7 -10 -30 -10 -50 1 -53 6 -2 14
10 19 27 7 23 15 31 32 31 13 0 24 -3 24 -7 0 -13 -64 -73 -77 -73 -7 0 -10
-7 -7 -15 8 -20 -13 -19 -24 2 -7 11 -15 14 -28 8 -18 -7 -18 -8 -1 -12 9 -3
17 -9 17 -14 0 -6 -4 -8 -9 -4 -5 3 -13 0 -17 -6 -4 -8 -11 -4 -20 12 -7 13
-13 19 -14 13 -1 -32 111 -144 144 -144 6 0 -11 13 -37 30 -49 31 -54 39 -35
58 13 13 52 -3 43 -19 -4 -5 -1 -9 4 -9 14 0 14 23 1 36 -8 8 3 20 37 42 26
17 49 29 51 27 6 -6 -25 -59 -47 -79 -22 -20 -28 -51 -11 -61 6 -3 11 4 11 17
1 20 2 21 6 3 3 -11 9 -25 15 -32 6 -7 5 -13 -4 -16 -8 -2 -7 -3 2 -3 9 1 14
10 13 24 -2 13 6 40 17 60 18 36 19 36 20 10 0 -15 -7 -33 -15 -41 -13 -13
-13 -16 0 -27 20 -16 19 -28 -2 -33 -10 -3 2 -5 27 -4 25 0 35 2 23 4 -21 4
-23 10 -23 69 l0 66 28 -24 c18 -15 27 -30 24 -41 -4 -15 0 -18 24 -15 18 2
29 9 29 18 0 9 10 25 23 38 31 31 28 71 -8 106 -29 29 -42 86 -20 86 6 0 10
-4 10 -9 0 -5 16 -9 35 -8 31 1 35 4 35 29 0 28 -15 39 -22 17 -3 -8 -10 -8
-26 2 -36 23 -24 35 31 31 12 -1 17 6 17 23 0 29 8 32 27 8 13 -17 13 -16 4 2
-5 11 -20 29 -33 40 -12 11 -18 13 -11 6 9 -11 8 -17 -4 -30 -12 -12 -17 -13
-21 -3 -4 14 -32 16 -32 2 0 -5 -4 -10 -10 -10 -5 0 -10 9 -10 19 0 26 -16 35
-24 15 -3 -9 -6 -54 -6 -101 0 -70 -4 -90 -21 -114 -11 -16 -25 -29 -30 -29
-5 0 -9 53 -9 120 0 109 -2 120 -18 120 -10 0 -28 9 -40 20 -12 11 -24 20 -27
20 -3 0 -14 -9 -25 -20 -11 -11 -15 -20 -10 -20 6 0 10 -8 10 -18 0 -15 6 -17
35 -14 29 3 35 1 35 -14 -1 -25 -36 -71 -47 -60 -4 4 -8 18 -8 29 0 16 -7 23
-25 25 -59 9 -67 50 -15 82 20 12 51 23 70 25 19 2 39 6 45 10 5 3 10 -1 10
-9 0 -9 5 -16 10 -16 6 0 10 7 10 16 0 12 3 14 13 6 7 -6 24 -8 38 -5 l24 7
-25 7 -25 7 24 1 c20 1 21 3 11 16 -10 12 -9 16 4 21 15 6 15 8 -1 21 -17 13
-16 14 7 8 92 -24 179 -95 219 -180 29 -61 40 -183 21 -241 -77 -241 -377
-316 -555 -139 -67 68 -96 140 -97 242 -1 62 4 82 31 137 38 77 101 137 175
165 60 23 78 26 53 7z m-97 -171 c7 -9 11 -18 8 -20 -9 -10 -38 7 -38 21 0 18
14 18 30 -1z m-10 -45 c11 -7 7 -10 -17 -10 -18 0 -33 5 -33 10 0 13 30 13 50
0z m312 -196 c-4 -22 -38 -54 -58 -54 -20 0 -54 37 -54 58 0 14 9 17 57 16 51
-1 58 -3 55 -20z"/>
<path d="M335 691 c-3 -6 3 -9 14 -8 11 0 17 5 15 9 -7 11 -22 10 -29 -1z"/>
<path d="M471 645 c-1 -6 5 -17 12 -24 10 -11 9 -13 -6 -8 -11 4 -16 3 -12 -3
11 -17 34 -11 32 9 0 11 -4 18 -8 15 -4 -2 -10 2 -12 8 -3 7 -6 8 -6 3z"/>
<path d="M196 631 c-3 -4 -1 -13 4 -20 8 -15 40 -8 40 8 0 11 -38 22 -44 12z"/>
<path d="M517 612 c-8 -16 -1 -37 13 -37 20 0 25 31 6 38 -9 4 -17 3 -19 -1z"/>
<path d="M156 602 c-3 -6 1 -13 10 -16 23 -9 28 -2 10 13 -8 7 -17 8 -20 3z"/>
<path d="M461 587 c2 -1 13 -9 24 -17 19 -14 19 -14 6 3 -7 9 -18 17 -24 17
-6 0 -8 -1 -6 -3z"/>
<path d="M580 540 c0 -5 5 -10 11 -10 5 0 7 5 4 10 -3 6 -8 10 -11 10 -2 0 -4
-4 -4 -10z"/>
<path d="M56 473 c-10 -11 -7 -43 5 -43 6 0 8 9 4 23 -5 20 -5 20 9 -3 15 -24
15 -24 16 -4 0 21 -22 39 -34 27z"/>
<path d="M621 471 c-20 -13 -6 -42 16 -34 17 7 17 8 0 11 -9 2 -15 8 -11 13 3
5 10 7 15 4 5 -4 9 -1 9 4 0 13 -10 14 -29 2z"/>
<path d="M581 455 c1 -19 18 -51 18 -35 0 8 -4 22 -9 30 -5 8 -9 11 -9 5z"/>
<path d="M40 395 c-9 -11 -10 -19 -3 -26 8 -8 11 -7 10 2 -1 8 3 14 8 14 6 0
9 -6 8 -14 -1 -9 2 -10 9 -3 12 12 4 42 -10 42 -5 0 -15 -7 -22 -15z"/>
<path d="M620 400 c0 -12 8 -12 35 0 18 8 17 9 -7 9 -16 1 -28 -3 -28 -9z"/>
<path d="M603 355 c0 -22 2 -30 4 -17 2 12 2 30 0 40 -3 9 -5 -1 -4 -23z"/>
<path d="M637 352 c4 -10 2 -13 -5 -8 -8 5 -10 2 -6 -8 7 -19 24 -11 25 12 0
14 2 13 10 -3 8 -19 9 -19 6 -1 -1 11 -10 20 -19 22 -11 1 -15 -3 -11 -14z"/>
<path d="M45 320 c3 -5 12 -7 20 -3 21 7 19 13 -6 13 -11 0 -18 -4 -14 -10z"/>
<path d="M50 295 c-14 -16 -3 -20 19 -6 8 5 9 11 3 15 -5 3 -15 -1 -22 -9z"/>
<path d="M101 294 c0 -11 3 -14 6 -6 3 7 2 16 -1 19 -3 4 -6 -2 -5 -13z"/>
<path d="M591 303 c-1 -6 -4 -20 -7 -30 -5 -17 -5 -17 6 0 6 10 9 23 6 30 -3
9 -5 9 -5 0z"/>
<path d="M628 294 c6 -3 9 -10 6 -16 -4 -6 -1 -9 5 -7 19 7 14 24 -6 26 -10 2
-12 0 -5 -3z"/>
<path d="M64 256 c-3 -9 -4 -23 0 -31 6 -16 36 -21 36 -5 0 5 -7 7 -15 4 -10
-4 -15 0 -15 11 0 12 5 15 16 11 10 -4 14 -1 12 6 -7 19 -27 21 -34 4z"/>
<path d="M610 260 c0 -5 10 -10 23 -10 18 0 19 2 7 10 -19 13 -30 13 -30 0z"/>
<path d="M522 183 c-43 -45 -39 -50 6 -9 20 18 49 58 40 55 -2 0 -23 -21 -46
-46z"/>
<path d="M584 216 c-4 -11 -2 -21 7 -27 20 -13 26 -11 33 8 4 10 4 14 0 10 -4
-4 -13 1 -20 11 -12 16 -13 16 -20 -2z"/>
<path d="M94 189 c-3 -6 2 -18 12 -27 17 -16 17 -16 5 0 -10 14 -9 18 6 27 16
9 16 10 1 11 -9 0 -20 -5 -24 -11z"/>
<path d="M561 166 c-1 -12 -6 -16 -16 -12 -8 3 -15 2 -15 -3 0 -10 41 -23 49
-16 2 3 -1 15 -7 27 -9 20 -11 20 -11 4z"/>
<path d="M134 138 c-5 -8 -2 -9 10 -5 9 4 15 3 12 -1 -2 -4 -1 -14 5 -22 5 -9
9 -10 9 -3 0 6 3 18 6 27 7 19 -31 23 -42 4z"/>
<path d="M450 130 c-9 -6 -10 -10 -3 -10 6 0 15 5 18 10 8 12 4 12 -15 0z"/>
<path d="M496 127 c-11 -8 -15 -19 -10 -30 8 -21 15 -21 40 -2 15 12 16 14 2
9 -13 -4 -16 -1 -13 15 5 25 4 25 -19 8z"/>
<path d="M408 113 c7 -3 16 -2 19 1 4 3 -2 6 -13 5 -11 0 -14 -3 -6 -6z"/>
<path d="M450 93 c0 -6 -9 -9 -20 -6 -22 6 -25 -4 -10 -27 7 -11 10 -12 10 -2
0 9 7 11 20 7 22 -7 25 2 10 25 -5 8 -10 10 -10 3z"/>
<path d="M267 83 c-5 -7 -5 -17 -2 -23 8 -13 55 -13 55 1 0 6 -8 8 -19 4 -14
-4 -20 -1 -23 12 -3 13 -6 15 -11 6z"/>
<path d="M340 60 c0 -15 6 -20 28 -19 24 0 25 1 7 9 l-20 9 20 1 20 1 -20 9
c-30 13 -35 12 -35 -10z"/>
</g>
</svg>
