<svg id="svg" version="1.1" xmlns="http://www.w3.org/2000/svg" xmlns:xlink="http://www.w3.org/1999/xlink" width="400" height="293.9341421143847" viewBox="0, 0, 400,293.9341421143847"><g id="svgg"><path id="path0" d="M273.676 46.470 C 272.382 46.760,269.074 47.473,266.324 48.055 C 263.574 48.636,259.140 49.579,256.471 50.151 C 253.801 50.722,250.294 51.457,248.676 51.784 C 244.950 52.536,244.412 52.763,244.412 53.578 C 244.412 59.360,240.078 64.776,232.839 68.042 L 231.119 68.817 230.554 68.159 C 228.790 66.100,226.870 61.932,225.880 58.012 C 225.601 56.905,225.485 56.779,224.883 56.931 C 224.508 57.025,222.694 57.408,220.851 57.782 C 213.343 59.307,207.252 60.592,207.206 60.662 C 207.179 60.702,207.011 62.324,206.833 64.265 C 206.295 70.109,205.067 72.858,202.574 73.798 C 201.985 74.020,201.765 74.306,201.765 74.846 C 201.765 75.473,201.629 75.588,200.893 75.588 C 197.444 75.588,192.946 71.652,188.971 65.152 C 188.670 64.661,185.862 65.081,179.366 66.589 C 178.340 66.828,175.184 67.515,172.353 68.116 C 166.364 69.387,166.570 69.282,167.472 70.611 C 168.571 72.227,171.099 77.264,172.050 79.728 C 175.185 87.858,174.502 90.513,169.132 91.074 C 165.103 91.495,161.474 89.721,153.346 83.358 C 151.263 81.728,148.897 79.947,148.088 79.402 C 147.279 78.856,145.512 77.569,144.160 76.541 L 141.703 74.671 138.131 75.413 C 136.166 75.821,132.640 76.567,130.294 77.070 C 127.949 77.573,123.912 78.431,121.324 78.978 C 118.735 79.524,114.699 80.385,112.353 80.890 C 110.007 81.394,105.971 82.255,103.382 82.801 C 100.794 83.348,96.493 84.266,93.824 84.841 C 87.947 86.108,82.145 87.339,76.578 88.501 C 65.901 90.728,63.794 94.791,66.880 107.206 C 67.644 110.279,68.595 114.184,68.995 115.882 C 69.394 117.581,70.047 120.294,70.446 121.912 C 71.071 124.449,76.526 147.300,78.696 156.471 C 79.098 158.169,79.752 160.882,80.149 162.500 C 80.547 164.118,81.271 167.129,81.759 169.191 C 82.248 171.254,83.037 174.563,83.514 176.544 C 83.990 178.526,85.058 182.993,85.887 186.471 C 88.847 198.891,89.926 203.394,91.773 211.029 C 92.242 212.971,93.020 216.213,93.501 218.235 C 95.998 228.729,96.826 232.059,96.940 232.059 C 97.009 232.059,98.288 231.786,99.783 231.452 C 101.277 231.118,106.404 230.067,111.176 229.115 C 115.949 228.163,124.419 226.441,130.000 225.289 C 139.574 223.311,142.232 222.843,148.235 222.076 C 151.206 221.697,159.423 219.812,159.815 219.420 C 159.985 219.250,159.484 218.492,158.499 217.428 C 124.564 180.774,133.881 120.953,177.647 94.488 C 204.131 78.474,234.335 75.639,262.647 86.509 C 278.333 92.532,294.051 104.414,303.060 117.059 C 303.489 117.660,303.557 117.687,303.435 117.206 C 303.353 116.882,302.741 114.301,302.074 111.471 C 301.408 108.640,300.541 105.000,300.147 103.382 C 298.703 97.446,297.626 92.944,296.171 86.765 C 293.822 76.790,293.269 74.464,292.498 71.324 C 291.645 67.852,290.323 62.310,289.271 57.794 C 287.800 51.482,286.780 49.579,283.872 47.718 C 280.933 45.839,278.061 45.487,273.676 46.470 M222.059 96.379 C 199.107 98.112,177.057 111.630,165.640 130.969 C 149.274 158.689,154.846 192.334,179.444 214.331 L 180.800 215.543 181.563 220.492 C 183.299 231.744,184.460 239.754,184.365 239.828 C 184.310 239.870,182.478 240.128,180.294 240.401 C 166.770 242.087,149.993 244.590,139.559 246.479 C 137.779 246.801,134.801 247.316,132.941 247.624 C 125.108 248.920,102.462 253.322,102.181 253.603 C 102.029 253.756,102.459 255.728,104.539 264.412 C 105.101 266.757,106.017 270.596,106.576 272.941 C 108.195 279.741,109.185 281.531,112.388 283.446 C 115.839 285.507,117.331 285.452,129.559 282.809 C 132.147 282.249,136.449 281.330,139.118 280.766 C 141.787 280.202,145.890 279.325,148.235 278.817 C 150.581 278.309,154.618 277.450,157.206 276.908 C 159.794 276.366,163.831 275.509,166.176 275.004 C 168.522 274.499,172.559 273.638,175.147 273.090 C 177.735 272.542,181.706 271.697,183.971 271.212 C 186.235 270.727,190.272 269.869,192.941 269.304 C 195.610 268.739,200.044 267.792,202.794 267.198 C 205.544 266.605,209.581 265.743,211.765 265.283 C 213.949 264.823,217.985 263.966,220.735 263.378 C 223.485 262.790,227.522 261.930,229.706 261.466 C 231.890 261.003,236.191 260.081,239.265 259.418 C 242.338 258.756,246.375 257.894,248.235 257.504 C 250.096 257.114,254.132 256.255,257.206 255.595 C 260.279 254.936,264.647 254.005,266.912 253.528 C 269.176 253.050,273.213 252.189,275.882 251.613 C 278.551 251.037,282.257 250.254,284.118 249.872 C 285.978 249.491,290.015 248.630,293.088 247.961 C 298.356 246.813,300.639 246.326,311.765 243.975 C 324.755 241.230,325.348 241.039,327.384 238.938 L 328.351 237.941 300.558 237.941 C 279.333 237.941,272.681 237.858,272.412 237.588 C 271.895 237.071,271.908 218.233,272.426 217.615 C 272.629 217.373,273.456 216.661,274.265 216.032 C 287.002 206.121,296.374 190.850,298.959 175.795 C 306.511 131.808,268.788 92.852,222.059 96.379 M238.869 104.834 C 277.268 110.753,301.786 148.297,289.871 182.929 C 276.573 221.582,227.294 237.439,192.715 214.192 C 143.685 181.230,163.610 110.509,223.676 104.295 C 226.038 104.050,236.105 104.407,238.869 104.834 M316.930 179.922 C 314.598 192.502,307.628 206.258,298.113 217.059 C 297.044 218.272,296.206 219.463,296.251 219.706 C 296.356 220.281,327.941 220.538,327.941 219.964 C 327.941 219.780,327.675 218.621,327.351 217.388 C 327.026 216.156,326.094 212.301,325.280 208.824 C 324.466 205.346,323.481 201.176,323.092 199.559 C 322.702 197.941,321.989 194.963,321.506 192.941 C 321.023 190.919,320.229 187.610,319.741 185.588 C 319.253 183.566,318.635 180.919,318.366 179.706 C 317.686 176.633,317.536 176.656,316.930 179.922 " stroke="none" fill="#73cb44" fill-rule="evenodd"></path><path id="path1" d="M191.176 11.620 C 187.806 12.442,184.959 14.760,183.289 18.040 C 176.795 30.797,182.768 60.455,194.114 71.795 C 197.507 75.185,201.765 76.883,201.765 74.846 C 201.765 74.306,201.985 74.020,202.574 73.798 C 207.146 72.075,207.737 66.377,205.574 44.853 C 205.146 40.594,205.035 38.037,205.172 35.588 C 206.123 18.575,200.705 9.296,191.176 11.620 M228.786 20.754 C 223.778 22.296,222.821 27.149,224.241 43.824 C 225.513 58.768,226.818 63.799,230.553 68.157 L 231.116 68.814 233.059 67.933 C 241.174 64.254,243.087 61.449,244.989 50.441 C 245.465 47.691,246.208 43.522,246.642 41.176 C 248.715 29.974,247.309 24.770,241.483 22.085 C 237.907 20.437,231.872 19.804,228.786 20.754 M147.395 46.482 C 142.513 47.578,136.487 64.367,138.836 70.327 C 140.005 73.291,141.623 74.826,149.412 80.362 C 150.625 81.224,152.933 82.977,154.541 84.257 C 162.498 90.594,166.953 92.204,171.883 90.525 C 175.667 89.236,173.393 79.688,166.931 69.739 C 164.631 66.196,161.586 61.349,160.537 59.559 C 159.968 58.588,158.655 56.349,157.619 54.582 C 154.015 48.436,150.632 45.755,147.395 46.482 M223.676 104.295 C 194.722 107.290,172.259 126.245,166.472 152.567 C 155.556 202.209,211.187 241.690,258.676 218.006 C 293.169 200.804,303.425 159.324,280.612 129.289 C 267.777 112.390,244.443 102.146,223.676 104.295 " stroke="none" fill="#fbf354" fill-rule="evenodd"></path><path id="path2" d="M219.118 80.466 C 203.595 82.155,191.001 86.413,177.647 94.488 C 133.881 120.953,124.564 180.774,158.499 217.428 C 159.484 218.492,159.985 219.250,159.815 219.420 C 159.423 219.812,151.206 221.697,148.235 222.076 C 142.232 222.843,139.574 223.311,130.000 225.289 C 124.419 226.441,115.904 228.171,111.077 229.133 C 106.250 230.095,99.963 231.410,97.106 232.056 C 94.249 232.702,90.257 233.560,88.235 233.962 C 86.213 234.364,82.375 235.163,79.706 235.736 C 77.037 236.310,73.000 237.164,70.735 237.636 C 68.471 238.107,64.765 238.903,62.500 239.405 C 60.235 239.907,56.331 240.765,53.824 241.312 C 51.316 241.859,47.147 242.778,44.559 243.355 C 41.971 243.932,38.089 244.791,35.934 245.264 C 33.778 245.736,31.940 246.197,31.850 246.287 C 31.672 246.465,32.562 252.518,33.670 258.676 C 34.049 260.779,34.520 263.711,34.717 265.191 C 35.208 268.877,34.707 268.708,40.750 267.220 C 51.648 264.535,56.652 263.338,67.059 260.926 C 68.434 260.607,72.338 259.735,75.735 258.989 C 79.132 258.242,83.037 257.371,84.412 257.053 C 87.721 256.288,94.652 254.848,98.676 254.090 C 100.456 253.755,106.610 252.572,112.353 251.462 C 122.702 249.460,131.410 247.837,133.676 247.486 C 134.324 247.386,136.640 246.987,138.824 246.599 C 150.814 244.467,166.579 242.111,180.294 240.401 C 182.478 240.128,184.310 239.870,184.365 239.828 C 184.460 239.754,183.299 231.744,181.563 220.492 L 180.800 215.543 179.444 214.331 C 151.862 189.666,148.551 150.653,171.651 122.500 C 199.787 88.208,253.721 87.354,283.100 120.735 C 308.608 149.717,304.652 192.388,274.265 216.032 C 273.456 216.661,272.629 217.373,272.426 217.615 C 271.908 218.233,271.895 237.071,272.412 237.588 C 272.683 237.859,281.791 237.941,311.618 237.941 L 350.470 237.941 351.694 237.148 C 353.494 235.981,353.576 235.593,353.473 228.698 L 353.382 222.601 352.284 221.594 L 351.185 220.588 341.695 220.546 C 309.968 220.404,296.332 220.152,296.250 219.706 C 296.206 219.463,297.044 218.272,298.113 217.059 C 307.677 206.202,314.369 193.007,316.860 180.095 C 319.127 168.339,318.825 153.627,316.139 144.948 C 315.973 144.410,315.463 142.713,315.006 141.176 C 303.532 102.595,261.325 75.872,219.118 80.466 " stroke="none" fill="#24348b" fill-rule="evenodd"></path><path id="path3" d="M0.000 147.059 L 0.000 294.118 200.000 294.118 L 400.001 294.118 399.927 147.132 L 399.853 0.147 199.926 0.073 L 0.000 -0.000 0.000 147.059 M198.088 11.879 C 200.717 13.126,202.698 15.803,203.773 19.559 C 204.950 23.676,205.077 24.903,205.301 34.412 C 205.455 40.918,205.719 45.567,206.129 48.971 C 206.460 51.721,206.822 55.393,206.935 57.132 C 207.095 59.606,207.232 60.294,207.566 60.294 C 207.801 60.294,209.735 59.904,211.864 59.428 C 213.993 58.951,217.654 58.144,220.000 57.634 C 222.346 57.124,224.513 56.640,224.817 56.557 C 225.289 56.429,225.344 56.212,225.196 55.042 C 221.607 26.625,223.009 19.979,232.585 20.006 C 242.575 20.034,247.847 24.581,247.756 33.088 C 247.724 36.180,245.747 48.815,244.823 51.838 C 244.641 52.437,245.008 52.483,246.473 52.046 C 247.038 51.877,249.750 51.269,252.500 50.695 C 258.926 49.353,263.845 48.307,270.441 46.880 C 278.553 45.126,281.906 45.444,285.119 48.272 C 287.810 50.641,288.059 51.280,290.594 62.306 C 291.053 64.303,291.512 66.153,291.613 66.418 C 291.715 66.684,292.188 68.624,292.665 70.730 C 293.142 72.836,293.997 76.478,294.565 78.824 C 295.133 81.169,296.005 84.809,296.503 86.912 C 297.000 89.015,297.849 92.588,298.388 94.853 C 298.927 97.118,299.647 100.162,299.988 101.618 C 300.667 104.520,301.963 109.899,303.139 114.706 C 303.793 117.378,304.142 118.170,305.729 120.588 C 310.254 127.485,313.858 135.429,315.870 142.941 C 316.325 144.640,316.775 146.228,316.872 146.471 C 318.357 150.214,319.139 163.607,318.348 171.768 C 317.903 176.357,317.905 176.806,318.375 178.705 C 318.651 179.822,319.252 182.369,319.711 184.365 C 320.170 186.362,320.629 188.212,320.731 188.477 C 320.833 188.742,321.306 190.682,321.783 192.788 C 322.259 194.895,323.112 198.537,323.678 200.882 C 325.387 207.971,326.486 212.610,327.335 216.324 L 328.141 219.853 339.291 220.000 C 354.617 220.202,353.768 219.667,353.802 229.148 C 353.835 238.580,354.650 238.057,339.743 238.175 L 328.750 238.262 327.390 239.392 C 325.126 241.273,323.509 241.837,315.882 243.411 C 312.377 244.134,310.211 244.593,299.118 246.960 C 296.449 247.529,292.147 248.444,289.559 248.992 C 286.971 249.540,283.000 250.389,280.735 250.878 C 278.471 251.367,274.434 252.226,271.765 252.787 C 269.096 253.348,264.728 254.277,262.059 254.851 C 259.390 255.426,255.353 256.289,253.088 256.769 C 250.824 257.249,246.787 258.113,244.118 258.687 C 238.873 259.817,234.164 260.818,226.324 262.470 C 223.574 263.050,219.140 263.994,216.471 264.567 C 207.060 266.589,198.600 268.394,189.706 270.276 C 185.829 271.096,179.922 272.359,171.618 274.142 C 169.353 274.628,165.382 275.474,162.794 276.020 C 160.206 276.567,155.838 277.495,153.088 278.082 C 150.338 278.669,146.301 279.527,144.118 279.989 C 141.934 280.451,137.897 281.309,135.147 281.896 C 132.397 282.483,128.559 283.290,126.618 283.689 C 124.676 284.089,122.195 284.631,121.104 284.894 C 113.746 286.670,108.775 283.063,106.657 274.412 C 104.910 267.277,103.577 261.696,103.250 260.147 C 103.020 259.062,101.772 254.263,101.633 253.934 C 101.599 253.853,92.818 255.601,88.235 256.601 C 85.566 257.183,81.488 258.051,79.174 258.529 C 76.859 259.007,74.849 259.471,74.706 259.558 C 74.564 259.646,72.620 260.107,70.386 260.583 C 64.394 261.859,58.444 263.208,57.941 263.405 C 57.699 263.500,55.846 263.955,53.824 264.417 C 51.801 264.878,49.618 265.394,48.971 265.563 C 46.034 266.329,35.654 268.824,35.404 268.824 C 35.030 268.824,34.269 265.290,33.379 259.412 C 32.975 256.743,32.392 253.103,32.085 251.324 C 31.043 245.292,30.302 246.144,38.088 244.421 C 40.191 243.956,44.096 243.089,46.765 242.496 C 56.510 240.331,67.316 237.990,71.765 237.080 C 73.463 236.733,76.309 236.120,78.088 235.720 C 79.868 235.319,82.449 234.788,83.824 234.540 C 85.199 234.293,86.721 233.965,87.206 233.813 C 87.691 233.661,89.840 233.213,91.981 232.818 C 94.122 232.422,95.990 232.027,96.132 231.939 C 96.274 231.852,96.010 230.155,95.545 228.169 C 95.080 226.184,94.315 222.904,93.844 220.882 C 93.373 218.860,92.725 216.147,92.403 214.853 C 92.081 213.559,91.269 210.184,90.600 207.353 C 89.322 201.954,88.191 197.223,86.765 191.324 C 86.296 189.382,85.455 185.875,84.897 183.529 C 84.338 181.184,83.653 178.338,83.375 177.206 C 82.857 175.100,81.965 171.367,80.176 163.824 C 78.618 157.255,77.146 151.089,76.207 147.206 C 74.398 139.718,72.419 131.453,70.470 123.235 C 69.913 120.890,68.998 117.051,68.437 114.706 C 67.875 112.360,67.009 108.721,66.513 106.618 C 66.016 104.515,65.473 102.332,65.305 101.767 C 64.361 98.588,65.524 94.498,68.110 91.906 C 70.374 89.637,71.054 89.377,79.265 87.646 C 81.529 87.169,85.566 86.309,88.235 85.736 C 90.904 85.163,94.941 84.306,97.206 83.833 C 99.471 83.359,103.507 82.499,106.176 81.921 C 108.846 81.343,112.882 80.478,115.147 80.000 C 117.412 79.521,121.449 78.660,124.118 78.087 C 126.787 77.514,131.154 76.595,133.824 76.044 C 136.493 75.494,138.875 74.979,139.118 74.899 C 139.360 74.820,139.920 74.676,140.362 74.579 L 141.166 74.403 140.173 73.103 C 137.595 69.726,137.370 65.602,139.408 59.119 C 144.732 42.184,150.843 41.785,159.700 57.794 C 162.046 62.034,166.556 68.823,167.018 68.809 C 167.746 68.788,182.601 65.700,186.396 64.781 L 188.528 64.265 187.953 63.323 C 181.176 52.214,178.322 29.048,182.525 19.265 C 185.352 12.685,192.566 9.261,198.088 11.879 " stroke="none" fill="#fbfbfb" fill-rule="evenodd"></path><path id="path4" d="M68.219 91.985 L 67.206 93.088 68.309 92.075 C 69.335 91.131,69.547 90.882,69.322 90.882 C 69.273 90.882,68.777 91.379,68.219 91.985 M327.481 238.897 L 326.618 239.853 327.574 238.989 C 328.465 238.184,328.665 237.941,328.437 237.941 C 328.387 237.941,327.957 238.371,327.481 238.897 " stroke="none" fill="#b4cabc" fill-rule="evenodd"></path><path id="path5" d="M188.162 12.521 C 187.062 13.118,187.129 13.366,188.235 12.794 C 188.721 12.543,189.118 12.275,189.118 12.198 C 189.118 12.009,189.086 12.020,188.162 12.521 M198.529 12.113 C 201.395 14.713,201.897 15.112,200.735 13.864 C 200.088 13.169,199.294 12.461,198.971 12.290 C 198.647 12.119,198.449 12.039,198.529 12.113 M202.557 16.908 C 202.826 17.472,203.099 17.882,203.163 17.818 C 203.297 17.683,202.404 15.882,202.203 15.882 C 202.129 15.882,202.288 16.344,202.557 16.908 M183.382 17.353 C 183.131 17.838,182.992 18.235,183.073 18.235 C 183.154 18.235,183.426 17.838,183.676 17.353 C 183.927 16.868,184.067 16.471,183.986 16.471 C 183.905 16.471,183.633 16.868,183.382 17.353 M181.638 21.495 C 181.384 22.349,181.186 23.256,181.197 23.509 C 181.209 23.763,181.464 23.111,181.764 22.061 C 182.063 21.011,182.262 20.105,182.204 20.047 C 182.146 19.989,181.891 20.641,181.638 21.495 M229.647 20.241 C 229.372 20.351,230.887 20.441,233.014 20.441 C 235.141 20.441,236.491 20.358,236.014 20.255 C 234.838 20.003,230.267 19.993,229.647 20.241 M240.613 21.581 C 240.914 21.854,243.235 22.938,243.235 22.806 C 243.235 22.639,241.016 21.471,240.698 21.471 C 240.584 21.471,240.545 21.520,240.613 21.581 M204.621 24.412 C 204.711 25.463,204.832 26.379,204.892 26.446 C 205.089 26.669,204.935 24.281,204.695 23.382 C 204.546 22.826,204.519 23.207,204.621 24.412 M244.559 24.118 C 245.191 24.765,245.774 25.294,245.855 25.294 C 245.936 25.294,245.485 24.765,244.853 24.118 C 244.221 23.471,243.638 22.941,243.557 22.941 C 243.476 22.941,243.927 23.471,244.559 24.118 M224.152 25.323 C 223.971 25.841,223.833 26.410,223.844 26.588 C 223.856 26.766,224.055 26.394,224.287 25.761 C 224.518 25.128,224.657 24.559,224.594 24.496 C 224.531 24.433,224.332 24.805,224.152 25.323 M205.091 28.382 C 205.093 29.353,205.148 29.715,205.213 29.186 C 205.279 28.657,205.277 27.863,205.210 27.421 C 205.143 26.979,205.089 27.412,205.091 28.382 M247.260 29.118 C 247.356 29.846,247.483 30.496,247.541 30.564 C 247.762 30.819,247.594 28.944,247.345 28.382 C 247.171 27.990,247.143 28.234,247.260 29.118 M180.403 32.059 C 180.403 33.757,180.452 34.452,180.511 33.603 C 180.570 32.754,180.570 31.364,180.511 30.515 C 180.452 29.665,180.403 30.360,180.403 32.059 M223.336 32.500 C 223.337 33.794,223.389 34.287,223.451 33.595 C 223.513 32.903,223.512 31.845,223.449 31.242 C 223.386 30.640,223.335 31.206,223.336 32.500 M247.744 32.794 C 247.745 33.926,247.798 34.354,247.862 33.743 C 247.925 33.133,247.924 32.207,247.859 31.685 C 247.794 31.162,247.742 31.662,247.744 32.794 M247.255 37.035 C 247.146 38.072,247.113 38.976,247.181 39.044 C 247.363 39.226,247.732 35.989,247.581 35.536 C 247.510 35.324,247.363 35.998,247.255 37.035 M205.099 38.235 C 205.099 39.449,205.151 39.945,205.214 39.338 C 205.278 38.732,205.278 37.739,205.214 37.132 C 205.151 36.526,205.099 37.022,205.099 38.235 M180.656 37.941 C 180.656 38.507,180.717 38.739,180.791 38.456 C 180.865 38.173,180.865 37.710,180.791 37.426 C 180.717 37.143,180.656 37.375,180.656 37.941 M223.610 38.235 C 223.610 38.963,223.667 39.261,223.737 38.897 C 223.807 38.533,223.807 37.938,223.737 37.574 C 223.667 37.210,223.610 37.507,223.610 38.235 M223.915 41.912 C 223.916 42.882,223.971 43.244,224.037 42.715 C 224.102 42.187,224.101 41.393,224.034 40.951 C 223.967 40.509,223.913 40.941,223.915 41.912 M181.245 42.206 C 181.246 42.691,181.347 43.485,181.471 43.971 C 181.782 45.194,181.796 43.990,181.487 42.500 C 181.283 41.511,181.244 41.464,181.245 42.206 M224.143 45.466 C 224.158 46.423,224.276 47.868,224.407 48.676 C 224.568 49.668,224.595 49.141,224.489 47.059 C 224.318 43.684,224.102 42.690,224.143 45.466 M276.838 45.799 C 277.283 45.866,278.011 45.866,278.456 45.799 C 278.901 45.732,278.537 45.676,277.647 45.676 C 276.757 45.676,276.393 45.732,276.838 45.799 M245.455 47.219 C 245.342 47.969,245.310 48.643,245.384 48.717 C 245.457 48.791,245.609 48.237,245.722 47.487 C 245.834 46.736,245.866 46.062,245.793 45.989 C 245.719 45.915,245.567 46.469,245.455 47.219 M144.839 48.015 L 143.676 49.265 144.926 48.102 C 146.089 47.021,146.312 46.765,146.089 46.765 C 146.041 46.765,145.479 47.327,144.839 48.015 M151.479 47.249 C 151.879 47.515,152.809 48.276,153.545 48.940 C 154.282 49.604,154.113 49.386,153.170 48.456 C 152.227 47.526,151.297 46.765,151.103 46.765 C 150.910 46.765,151.079 46.983,151.479 47.249 M285.000 48.327 C 285.000 48.378,285.430 48.808,285.956 49.283 L 286.912 50.147 286.048 49.191 C 285.243 48.300,285.000 48.100,285.000 48.327 M182.968 50.167 C 182.929 50.623,183.842 53.609,183.979 53.472 C 184.042 53.409,183.846 52.569,183.544 51.605 C 183.242 50.641,182.983 49.994,182.968 50.167 M142.338 51.499 C 142.000 52.162,141.774 52.755,141.836 52.816 C 141.897 52.878,142.236 52.336,142.588 51.611 C 143.389 49.961,143.173 49.864,142.338 51.499 M206.257 51.471 C 206.257 52.199,206.314 52.496,206.384 52.132 C 206.454 51.768,206.454 51.173,206.384 50.809 C 206.314 50.445,206.257 50.743,206.257 51.471 M156.018 51.985 C 156.472 52.673,156.899 53.235,156.967 53.235 C 157.180 53.235,156.053 51.445,155.612 51.080 C 155.382 50.891,155.565 51.298,156.018 51.985 M206.565 54.706 C 206.565 55.757,206.618 56.188,206.683 55.662 C 206.749 55.136,206.749 54.276,206.683 53.750 C 206.618 53.224,206.565 53.654,206.565 54.706 M140.607 55.460 C 140.262 56.382,140.031 57.187,140.093 57.250 C 140.156 57.313,140.486 56.606,140.827 55.680 C 141.168 54.754,141.399 53.948,141.341 53.890 C 141.282 53.831,140.952 54.537,140.607 55.460 M185.169 57.059 C 185.277 57.463,185.488 57.993,185.638 58.235 C 185.827 58.542,185.850 58.452,185.714 57.941 C 185.606 57.537,185.394 57.007,185.244 56.765 C 185.055 56.458,185.032 56.548,185.169 57.059 M206.820 58.603 C 206.772 60.320,206.834 60.588,207.279 60.584 C 207.626 60.581,207.680 60.507,207.443 60.356 C 207.250 60.233,207.043 59.342,206.984 58.375 L 206.876 56.618 206.820 58.603 M159.853 58.529 C 160.104 59.015,160.375 59.412,160.456 59.412 C 160.537 59.412,160.398 59.015,160.147 58.529 C 159.896 58.044,159.625 57.647,159.544 57.647 C 159.463 57.647,159.602 58.044,159.853 58.529 M138.529 62.059 C 138.331 62.885,138.227 63.620,138.299 63.691 C 138.370 63.763,138.586 63.140,138.778 62.308 C 138.970 61.475,139.074 60.741,139.009 60.675 C 138.943 60.610,138.728 61.233,138.529 62.059 M138.040 66.471 C 138.040 67.684,138.092 68.180,138.155 67.574 C 138.219 66.967,138.219 65.974,138.155 65.368 C 138.092 64.761,138.040 65.257,138.040 66.471 M139.981 72.859 C 140.330 73.380,140.744 73.885,140.901 73.982 C 141.058 74.079,141.110 74.282,141.017 74.432 C 140.924 74.583,140.988 74.706,141.159 74.706 C 141.679 74.706,141.497 74.319,140.397 73.088 C 139.531 72.119,139.458 72.078,139.981 72.859 M65.094 99.118 C 65.094 100.169,65.148 100.599,65.213 100.074 C 65.278 99.548,65.278 98.688,65.213 98.162 C 65.148 97.636,65.094 98.066,65.094 99.118 M117.285 285.213 C 117.813 285.279,118.607 285.277,119.049 285.210 C 119.491 285.143,119.059 285.089,118.088 285.091 C 117.118 285.093,116.756 285.148,117.285 285.213 " stroke="none" fill="#ddf2b5" fill-rule="evenodd"></path><path id="path6" d="M303.540 117.794 C 303.542 117.956,303.813 118.419,304.144 118.824 C 304.543 119.312,304.643 119.361,304.441 118.971 C 303.946 118.011,303.538 117.479,303.540 117.794 M309.265 127.353 C 309.516 127.838,309.787 128.235,309.868 128.235 C 309.949 128.235,309.810 127.838,309.559 127.353 C 309.308 126.868,309.036 126.471,308.955 126.471 C 308.875 126.471,309.014 126.868,309.265 127.353 M310.907 130.441 C 310.907 130.603,311.161 131.199,311.471 131.765 C 311.781 132.331,312.034 132.662,312.034 132.500 C 312.034 132.338,311.781 131.743,311.471 131.176 C 311.161 130.610,310.907 130.279,310.907 130.441 M313.404 136.471 C 313.512 136.875,313.723 137.404,313.873 137.647 C 314.063 137.954,314.086 137.864,313.949 137.353 C 313.841 136.949,313.630 136.419,313.480 136.176 C 313.290 135.870,313.267 135.960,313.404 136.471 M315.029 140.984 C 314.981 141.392,315.926 144.466,316.059 144.333 C 316.126 144.266,315.929 143.429,315.620 142.473 C 315.311 141.517,315.046 140.847,315.029 140.984 M318.304 158.529 C 318.304 159.096,318.364 159.327,318.438 159.044 C 318.512 158.761,318.512 158.298,318.438 158.015 C 318.364 157.732,318.304 157.963,318.304 158.529 M318.304 169.412 C 318.304 169.978,318.364 170.210,318.438 169.926 C 318.512 169.643,318.512 169.180,318.438 168.897 C 318.364 168.614,318.304 168.846,318.304 169.412 M317.715 175.000 C 317.715 175.566,317.776 175.798,317.850 175.515 C 317.924 175.232,317.924 174.768,317.850 174.485 C 317.776 174.202,317.715 174.434,317.715 175.000 M333.750 220.514 C 336.864 220.562,341.960 220.562,345.074 220.514 C 348.188 220.467,345.640 220.428,339.412 220.428 C 333.184 220.428,330.636 220.467,333.750 220.514 M353.651 229.265 C 353.651 232.176,353.695 233.328,353.749 231.823 C 353.802 230.319,353.802 227.936,353.748 226.529 C 353.694 225.122,353.651 226.353,353.651 229.265 M92.059 232.941 C 91.477 233.128,91.446 233.177,91.912 233.177 C 92.235 233.177,92.831 233.071,93.235 232.941 C 93.818 232.755,93.848 232.706,93.382 232.706 C 93.059 232.706,92.463 232.812,92.059 232.941 M73.824 236.765 C 73.241 236.951,73.211 237.000,73.676 237.000 C 74.000 237.000,74.596 236.894,75.000 236.765 C 75.582 236.578,75.613 236.529,75.147 236.529 C 74.824 236.529,74.228 236.635,73.824 236.765 M56.176 240.588 C 55.594 240.775,55.564 240.824,56.029 240.824 C 56.353 240.824,56.949 240.718,57.353 240.588 C 57.935 240.402,57.966 240.353,57.500 240.353 C 57.176 240.353,56.581 240.459,56.176 240.588 M46.765 242.647 C 46.182 242.834,46.152 242.883,46.618 242.883 C 46.941 242.883,47.537 242.777,47.941 242.647 C 48.523 242.461,48.554 242.412,48.088 242.412 C 47.765 242.412,47.169 242.518,46.765 242.647 M38.824 244.412 C 38.232 244.601,38.204 244.649,38.676 244.656 C 39.000 244.661,39.529 244.551,39.853 244.412 C 40.602 244.090,39.829 244.090,38.824 244.412 M31.584 246.306 C 31.494 246.540,31.483 246.970,31.559 247.262 C 31.652 247.621,31.708 247.539,31.731 247.010 C 31.749 246.578,31.930 246.159,32.132 246.077 C 32.420 245.961,32.418 245.924,32.123 245.906 C 31.916 245.893,31.673 246.073,31.584 246.306 M95.441 254.706 C 94.692 255.028,95.465 255.028,96.471 254.706 C 97.062 254.517,97.091 254.469,96.618 254.462 C 96.294 254.457,95.765 254.567,95.441 254.706 M69.706 260.294 C 69.124 260.481,69.093 260.530,69.559 260.530 C 69.882 260.530,70.478 260.424,70.882 260.294 C 71.465 260.108,71.495 260.059,71.029 260.059 C 70.706 260.059,70.110 260.165,69.706 260.294 M52.794 264.276 C 51.634 264.677,51.632 264.680,52.647 264.509 C 53.847 264.307,55.073 263.859,54.412 263.865 C 54.169 263.867,53.441 264.052,52.794 264.276 M44.853 266.176 C 44.103 266.499,44.877 266.499,45.882 266.176 C 46.473 265.987,46.502 265.939,46.029 265.932 C 45.706 265.928,45.176 266.037,44.853 266.176 M36.618 268.235 C 36.247 268.395,36.193 268.488,36.471 268.488 C 36.713 268.488,37.176 268.374,37.500 268.235 C 37.871 268.076,37.925 267.983,37.647 267.983 C 37.404 267.983,36.941 268.096,36.618 268.235 " stroke="none" fill="#8c94c4" fill-rule="evenodd"></path><path id="path7" d="M318.598 160.882 C 318.598 161.449,318.658 161.680,318.732 161.397 C 318.806 161.114,318.806 160.651,318.732 160.368 C 318.658 160.085,318.598 160.316,318.598 160.882 M318.614 166.912 C 318.616 167.721,318.673 168.017,318.740 167.569 C 318.808 167.122,318.806 166.461,318.736 166.099 C 318.667 165.737,318.611 166.103,318.614 166.912 M333.622 220.220 C 336.666 220.268,341.563 220.268,344.505 220.220 C 347.446 220.172,344.956 220.133,338.971 220.133 C 332.985 220.133,330.579 220.172,333.622 220.220 " stroke="none" fill="#d2dfe1" fill-rule="evenodd"></path><path id="path8" d="M318.626 163.676 C 318.627 164.809,318.680 165.236,318.744 164.626 C 318.808 164.016,318.807 163.089,318.742 162.567 C 318.677 162.045,318.625 162.544,318.626 163.676 M333.750 238.161 C 336.702 238.209,341.533 238.209,344.485 238.161 C 347.438 238.113,345.022 238.074,339.118 238.074 C 333.213 238.074,330.798 238.113,333.750 238.161 " stroke="none" fill="#c4cce4" fill-rule="evenodd"></path></g></svg>