<?xml version="1.0" encoding="UTF-8"?>
<svg xmlns="http://www.w3.org/2000/svg" xmlns:xlink="http://www.w3.org/1999/xlink" width="357.9pt" height="365pt" viewBox="0 0 357.9 365" version="1.1">
<defs>
<clipPath id="clip1">
  <path d="M 0 0 L 357.898438 0 L 357.898438 365 L 0 365 Z M 0 0 "/>
</clipPath>
</defs>
<g id="surface1">
<g clip-path="url(#clip1)" clip-rule="nonzero">
<path style=" stroke:none;fill-rule:nonzero;fill:rgb(6.298828%,29.798889%,48.199463%);fill-opacity:1;" d="M 154.519531 19.992188 C 155.886719 19.46875 156.492188 17.636719 156.476563 14.050781 C 156.445313 5.617188 154.710938 4.925781 152.351563 12.40625 C 149.5 21.445313 149.621094 21.871094 154.519531 19.992188 Z M 138.980469 38.335938 C 140.011719 37.660156 143.679688 29.363281 147.132813 19.890625 L 153.414063 2.671875 L 158.394531 1.867188 C 174.511719 -0.734375 173.671875 -0.78125 174.5625 2.765625 C 175.664063 7.152344 174.402344 8.101563 172.007813 4.6875 C 170.371094 2.351563 169.332031 2.042969 165.46875 2.738281 C 162.941406 3.195313 160.6875 3.730469 160.460938 3.921875 C 160.230469 4.117188 160.4375 7.421875 160.917969 11.265625 C 161.640625 17.058594 162.207031 18.25 164.230469 18.25 C 167.785156 18.25 171.507813 15.949219 171.507813 13.753906 C 171.507813 12.703125 172.070313 12.195313 172.761719 12.621094 C 173.449219 13.046875 173.992188 15.753906 173.972656 18.636719 C 173.9375 23.265625 173.738281 23.621094 172.269531 21.691406 C 171.28125 20.386719 168.945313 19.5 166.503906 19.5 L 162.402344 19.5 L 163.125 26.511719 C 163.523438 30.371094 164.035156 33.710938 164.261719 33.9375 C 164.488281 34.164063 167.015625 34.039063 169.871094 33.65625 C 174.011719 33.101563 175.21875 32.355469 175.8125 29.984375 C 176.859375 25.8125 179.015625 26.269531 179.015625 30.660156 C 179.015625 34.636719 178.460938 34.882813 165.878906 36.449219 C 162.4375 36.875 158.5 37.535156 157.121094 37.910156 C 154.722656 38.570313 154.707031 38.5 156.8125 36.140625 C 158.539063 34.203125 158.835938 32.433594 158.207031 27.839844 C 157.535156 22.925781 156.976563 22.003906 154.6875 22.003906 C 150.910156 22.003906 148.304688 24.394531 146.648438 29.382813 C 144.753906 35.09375 144.871094 37.015625 147.113281 37.015625 C 148.144531 37.015625 148.992188 37.472656 148.992188 38.03125 C 148.992188 38.59375 146.316406 39.164063 143.046875 39.308594 C 138.792969 39.492188 137.636719 39.214844 138.980469 38.335938 Z M 225.464844 37.558594 C 229.636719 35.398438 233.988281 27.3125 234.03125 21.628906 C 234.082031 15.460938 230.886719 11.175781 224.652344 9.050781 C 220.328125 7.578125 218.800781 7.46875 218.414063 8.609375 C 218.132813 9.4375 216.394531 15.464844 214.550781 22.003906 C 212.710938 28.539063 210.949219 34.5625 210.636719 35.386719 C 210.3125 36.25 211.847656 37.398438 214.246094 38.089844 C 220.191406 39.800781 221.222656 39.753906 225.464844 37.558594 Z M 209.039063 39.128906 C 200.425781 36.679688 199.929688 36.363281 202.980469 35.285156 C 205.046875 34.554688 206.578125 32.886719 207.03125 30.871094 C 207.429688 29.089844 209.109375 22.964844 210.761719 17.261719 C 213.398438 8.167969 213.542969 6.667969 211.941406 5.066406 C 209.441406 2.566406 211.34375 2.699219 221.566406 5.742188 C 226.195313 7.121094 231.421875 9.382813 233.179688 10.769531 C 237.863281 14.449219 239.6875 20.945313 237.859375 27.425781 C 236.015625 33.96875 234.492188 36.027344 229.035156 39.355469 C 223.734375 42.585938 221.089844 42.554688 209.039063 39.128906 Z M 242.816406 51.402344 C 237.972656 48.808594 237.621094 48.378906 240.316406 48.308594 C 243.011719 48.238281 244.363281 46.398438 250.089844 35.023438 C 255.390625 24.484375 256.433594 21.457031 255.25 20.035156 C 253.140625 17.492188 255.105469 17.910156 261.582031 21.378906 C 266.425781 23.96875 266.773438 24.402344 264.085938 24.464844 C 261.410156 24.53125 259.972656 26.421875 254.144531 37.546875 C 248.328125 48.644531 247.570313 50.84375 248.980469 52.539063 C 251.257813 55.285156 249.441406 54.949219 242.816406 51.402344 Z M 98.949219 58.515625 C 98.949219 57.976563 99.523438 56.960938 100.222656 56.261719 C 101.085938 55.398438 99.460938 50.679688 95.191406 41.621094 C 89.992188 30.605469 88.394531 28.246094 86.097656 28.203125 C 83.839844 28.15625 84.214844 27.671875 88.089844 25.625 L 92.867188 23.105469 L 113.960938 42.253906 L 113.871094 38.070313 C 113.824219 35.769531 113.378906 29.445313 112.886719 24.011719 L 111.988281 14.136719 L 115.789063 11.820313 C 120.675781 8.839844 121.871094 8.878906 119.949219 11.960938 C 118.625 14.082031 119.273438 16.191406 124.578125 26.972656 C 130.492188 38.988281 131.375 40.070313 134.917969 39.609375 C 138.082031 39.199219 136.320313 40.808594 130.226563 43.894531 C 124.421875 46.835938 122.222656 46.769531 125.25 43.742188 C 126.121094 42.871094 124.734375 38.703125 120.910156 30.671875 L 115.292969 18.875 L 115.976563 33.261719 C 116.355469 41.175781 116.882813 48.351563 117.148438 49.214844 C 117.417969 50.074219 117.285156 50.777344 116.851563 50.777344 C 116.003906 50.777344 96.410156 33.484375 94.902344 31.402344 C 92.234375 27.71875 94.539063 34.5 98.921875 43.210938 C 103.058594 51.445313 104.453125 53.175781 107.222656 53.503906 C 110.304688 53.875 110.121094 54.109375 104.75 56.703125 C 101.558594 58.242188 98.949219 59.058594 98.949219 58.515625 Z M 271.371094 70.921875 C 263.96875 66.226563 261.582031 62.667969 261.582031 56.3125 C 261.582031 46.929688 271.167969 37.011719 280.222656 37.019531 C 284.777344 37.023438 291.152344 40.136719 296.300781 44.871094 C 299.742188 48.035156 299.773438 49.273438 296.515625 53.277344 L 293.96875 56.40625 L 294.699219 51.402344 C 295.375 46.777344 295.113281 46.183594 291.253906 43.582031 C 282.726563 37.839844 272.128906 41.414063 267.644531 51.546875 C 266.121094 54.988281 265.421875 58.457031 265.882813 60.285156 C 266.613281 63.199219 273.480469 70.792969 275.386719 70.792969 C 277.300781 70.792969 280.457031 64.347656 279.703125 61.980469 C 278.585938 58.453125 280.292969 59.019531 285.976563 64.070313 C 290.695313 68.261719 290.789063 68.472656 287.589844 67.765625 C 284.8125 67.152344 283.6875 67.703125 281.410156 70.78125 C 279.878906 72.851563 278.28125 74.546875 277.855469 74.546875 C 277.433594 74.546875 274.515625 72.914063 271.371094 70.921875 Z M 76.058594 77.085938 C 76.523438 75.308594 74.132813 71.632813 67.496094 63.914063 C 59.460938 54.570313 57.894531 53.300781 55.164063 53.953125 C 52.640625 54.558594 53.367188 53.460938 58.917969 48.285156 C 62.703125 44.757813 67.101563 40.96875 68.695313 39.871094 C 71.410156 37.996094 71.757813 38.046875 74.324219 40.660156 L 77.054688 43.445313 L 72.675781 42.652344 C 68.886719 41.964844 67.796875 42.378906 64.59375 45.722656 L 60.890625 49.585938 L 70.816406 59.511719 L 74.355469 56.46875 C 77.113281 54.101563 77.703125 52.785156 77.015625 50.539063 C 76.1875 47.828125 76.375 47.875 80.035156 51.324219 C 84.511719 55.539063 84.980469 57.070313 81.523438 56.164063 C 78.996094 55.503906 72.746094 59.246094 72.769531 61.410156 C 72.777344 62.097656 74.695313 64.828125 77.03125 67.472656 L 81.285156 72.285156 L 85.847656 68.808594 C 89.578125 65.960938 90.316406 64.683594 89.890625 61.804688 C 89.273438 57.589844 90.78125 57.207031 92.839844 61.058594 C 94.203125 63.605469 93.613281 64.484375 85.691406 71.683594 C 80.941406 75.996094 76.6875 79.53125 76.234375 79.539063 C 75.785156 79.546875 75.703125 78.441406 76.058594 77.085938 Z M 300.8125 103.960938 C 302.949219 98.386719 310.617188 71.871094 310.203125 71.472656 C 309.953125 71.230469 305.527344 74.144531 300.363281 77.949219 C 292.496094 83.753906 291.023438 85.398438 291.238281 88.152344 C 291.492188 91.398438 291.457031 91.386719 287.832031 87.054688 C 285.816406 84.648438 284.152344 82.253906 284.136719 81.738281 C 284.085938 80.347656 286.335938 80.605469 287.257813 82.097656 C 287.738281 82.875 290.636719 81.53125 294.523438 78.730469 C 298.082031 76.167969 303.382813 72.449219 306.308594 70.464844 C 310.320313 67.746094 311.632813 66.039063 311.652344 63.511719 L 311.679688 60.160156 L 314.125 63.285156 C 317.34375 67.398438 317.296875 67.921875 312.34375 83.617188 C 310.007813 91.011719 308.527344 97.0625 309.050781 97.0625 C 309.570313 97.0625 313.695313 94.269531 318.210938 90.847656 C 325.074219 85.652344 326.308594 84.164063 325.722656 81.777344 C 325.003906 78.859375 325.375 79.226563 332.082031 88.074219 C 333.066406 89.367188 332.625 89.539063 330 88.878906 C 327.21875 88.183594 324.796875 89.414063 315.234375 96.410156 C 302.101563 106.011719 299.503906 107.371094 300.8125 103.960938 Z M 47.40625 86.804688 C 49.554688 84.660156 49.261719 79.511719 46.839844 76.835938 C 43.949219 73.640625 38.386719 73.894531 36.113281 77.320313 C 34.371094 79.945313 34.550781 80.320313 39.398438 84.136719 C 45.292969 88.78125 45.398438 88.816406 47.40625 86.804688 Z M 55.164063 104.445313 C 55.164063 100.054688 33.417969 84.054688 29.964844 85.902344 C 26.203125 87.914063 27.253906 85.535156 33.628906 77.613281 C 40.292969 69.320313 44.085938 67.886719 48.945313 71.820313 C 51.148438 73.605469 51.882813 75.402344 51.785156 78.765625 L 51.65625 83.304688 L 60.375 83.304688 C 65.167969 83.304688 70.179688 82.71875 71.507813 82.007813 C 74.550781 80.378906 74.546875 81.835938 71.496094 85.492188 C 69.398438 88.011719 68.019531 88.308594 58.402344 88.308594 C 52.492188 88.308594 47.667969 88.730469 47.683594 89.246094 C 47.699219 89.761719 49.925781 91.75 52.628906 93.664063 C 56.417969 96.34375 58.339844 96.941406 61 96.273438 L 64.453125 95.410156 L 60.191406 100.929688 C 57.847656 103.964844 55.757813 106.683594 55.546875 106.96875 C 55.335938 107.253906 55.164063 106.117188 55.164063 104.445313 Z M 308.730469 121.417969 C 306.113281 115.929688 305.949219 113.71875 308.3125 115.675781 C 309.609375 116.753906 313.09375 115.695313 323.246094 111.140625 C 334.398438 106.132813 336.558594 104.703125 336.945313 102.070313 C 337.355469 99.304688 337.726563 99.640625 340.152344 104.988281 C 343.496094 112.34375 343.503906 112.488281 340.496094 110.878906 C 337.078125 109.050781 312.875 120.128906 312.875 123.527344 C 312.875 127.175781 311.027344 126.234375 308.730469 121.417969 Z M 33.328125 114.320313 C 34.066406 110.964844 33.675781 109.882813 30.851563 107.453125 C 26.859375 104.019531 22.492188 103.742188 19.867188 106.761719 C 15.90625 111.304688 16.445313 112.578125 23.738281 115.976563 C 27.605469 117.773438 31.148438 119.035156 31.609375 118.773438 C 32.074219 118.515625 32.847656 116.511719 33.328125 114.320313 Z M 42.515625 132.25 C 42.117188 129.816406 39.671875 128.246094 29.046875 123.601563 C 18.285156 118.898438 15.664063 118.179688 13.722656 119.390625 C 10.671875 121.296875 10.722656 120.96875 15 111.539063 C 20.589844 99.207031 27.8125 96.496094 34.027344 104.398438 C 36.574219 107.636719 36.667969 110.363281 34.484375 117.789063 C 33.863281 119.90625 34.652344 120.792969 38.816406 122.671875 C 43.730469 124.890625 43.996094 124.890625 46.410156 122.707031 C 49.582031 119.839844 49.46875 121.15625 45.878906 128.964844 C 43.417969 134.316406 42.929688 134.789063 42.515625 132.25 Z M 317.535156 145.660156 C 314.820313 136.761719 314.839844 136.222656 317.761719 138.867188 C 320.027344 140.917969 320.769531 140.859375 332.601563 137.679688 C 348.296875 133.460938 348.523438 133.320313 347.015625 128.796875 C 346.15625 126.222656 344.792969 125.027344 342.171875 124.5625 C 338.289063 123.867188 338.976563 122.917969 344.273438 121.65625 C 347.480469 120.890625 347.578125 121.078125 351.21875 134.933594 L 354.910156 148.980469 L 351.269531 149.992188 C 346.570313 151.296875 345.609375 150.253906 348.914063 147.449219 C 350.84375 145.8125 351.347656 144.324219 350.824219 141.789063 C 350.433594 139.898438 349.585938 138.347656 348.941406 138.347656 C 347.984375 138.347656 331.40625 142.765625 322.648438 145.351563 C 321.488281 145.691406 320.347656 147.496094 320.113281 149.355469 C 319.769531 152.140625 319.316406 151.492188 317.535156 145.660156 Z M 0.972656 163.367188 C 1.417969 160.960938 2.160156 157.582031 2.621094 155.863281 C 3.433594 152.847656 3.496094 152.832031 4.324219 155.386719 C 5.027344 157.546875 7.085938 158.410156 15.476563 160.078125 C 21.132813 161.199219 27.226563 162.121094 29.011719 162.117188 C 32.925781 162.117188 35.832031 159.097656 36.9375 153.878906 C 38.34375 147.253906 35.125 144.910156 20.835938 142.164063 C 9.210938 139.925781 8.296875 139.90625 6.800781 141.875 C 5.351563 143.78125 5.199219 143.785156 5.164063 141.945313 C 5.140625 140.828125 5.472656 138.152344 5.90625 136.003906 C 6.746094 131.796875 8.875 130.625 8.875 134.367188 C 8.875 136.25 10.957031 137.03125 20.992188 138.921875 C 35.882813 141.726563 38.902344 144.0625 38.902344 152.796875 C 38.902344 159.585938 35.757813 165.671875 31.734375 166.679688 C 30.183594 167.070313 23.269531 166.394531 16.363281 165.179688 C 4.113281 163.027344 3.765625 163.03125 1.984375 165.363281 C 0.308594 167.554688 0.226563 167.394531 0.972656 163.367188 Z M 350.40625 174.523438 C 350.40625 173.730469 341.726563 170.875 339.316406 170.875 C 337.910156 170.875 337.28125 177.347656 338.5625 178.628906 C 339.359375 179.425781 350.40625 175.597656 350.40625 174.523438 Z M 322.882813 187.609375 C 322.882813 182.808594 323.179688 182.074219 324.628906 183.273438 C 325.964844 184.386719 327.585938 184.238281 331.570313 182.640625 C 336.695313 180.589844 336.765625 180.484375 336.394531 174.910156 C 336.027344 169.394531 335.890625 169.222656 330.390625 167.585938 C 327.292969 166.664063 324.617188 165.902344 324.445313 165.890625 C 324.273438 165.878906 324.136719 166.714844 324.136719 167.746094 C 324.136719 168.78125 323.570313 169.625 322.882813 169.625 C 322.195313 169.625 321.644531 166.949219 321.660156 163.683594 C 321.6875 157.855469 321.730469 157.789063 323.851563 160.40625 C 325.191406 162.058594 332.0625 165.144531 341.953125 168.535156 C 350.722656 171.542969 357.898438 174.644531 357.902344 175.429688 C 357.910156 176.691406 329.269531 189.640625 326.476563 189.640625 C 325.875 189.640625 325.386719 190.484375 325.386719 191.515625 C 325.386719 192.550781 324.824219 193.394531 324.136719 193.394531 C 323.445313 193.394531 322.882813 190.789063 322.882813 187.609375 Z M 2.765625 196.421875 C -1.863281 190.539063 -0.441406 181.433594 5.234375 180.601563 C 9.695313 179.945313 10.027344 181.757813 5.75 183.386719 C -0.101563 185.609375 2.390625 196.847656 8.476563 195.675781 C 9.699219 195.4375 12.855469 191.988281 15.492188 188.003906 C 21.214844 179.359375 24.660156 177.363281 30.03125 179.585938 C 34.648438 181.496094 36.8125 187.230469 35.65625 194.476563 C 34.90625 199.144531 34.476563 199.648438 31.234375 199.648438 C 26.8125 199.648438 26.503906 197.480469 30.769531 196.410156 C 34.503906 195.472656 35.039063 190.582031 31.898438 186.09375 C 28.75 181.601563 25.261719 183.136719 19.5625 191.515625 C 15.085938 198.101563 13.902344 199.070313 9.933594 199.402344 C 6.261719 199.710938 4.910156 199.148438 2.765625 196.417969 Z M 348.84375 228.679688 C 344.601563 228.15625 344.359375 226.230469 348.402344 225.214844 C 350.375 224.71875 351.625 223.316406 352.046875 221.125 C 352.398438 219.289063 352.464844 217.5625 352.195313 217.289063 C 351.921875 217.015625 345.382813 215.71875 337.664063 214.40625 L 323.625 212.019531 L 321.332031 214.902344 C 319.046875 217.777344 319.039063 217.765625 319.863281 211.535156 C 320.804688 204.425781 322.78125 199.65625 322.847656 204.339844 C 322.867188 205.886719 323.023438 207.167969 323.195313 207.183594 C 323.367188 207.199219 329.976563 208.273438 337.882813 209.574219 C 345.789063 210.871094 352.6875 211.671875 353.210938 211.347656 C 355.328125 210.035156 354.089844 203.660156 351.34375 201.742188 C 348.535156 199.78125 348.535156 199.78125 352.597656 199.714844 C 356.214844 199.65625 356.660156 200.027344 356.65625 203.089844 C 356.652344 206.222656 353.011719 228.980469 352.5 229.066406 C 352.382813 229.085938 350.734375 228.914063 348.84375 228.679688 Z M 343.925781 248.222656 C 343.59375 245.980469 341.257813 244.753906 330.496094 241.171875 C 320.089844 237.707031 317.011719 237.121094 315.1875 238.257813 C 311.882813 240.320313 311.871094 240.269531 314.03125 233.441406 C 316.027344 227.128906 317.878906 225.234375 317.878906 229.503906 C 317.878906 232.992188 344.511719 241.972656 347.519531 239.496094 C 349.355469 237.984375 349.480469 238.160156 348.726563 241.191406 C 347.550781 245.910156 345.574219 250.941406 344.894531 250.941406 C 344.582031 250.941406 344.144531 249.71875 343.925781 248.222656 Z M 17.917969 264.203125 C 17.074219 262.351563 16.382813 260.277344 16.382813 259.605469 C 16.382813 258.929688 19.757813 253.015625 23.886719 246.460938 C 28.015625 239.90625 31.394531 234.070313 31.394531 233.488281 C 31.394531 232.902344 26.890625 234.136719 21.386719 236.230469 C 13.292969 239.304688 11.367188 240.535156 11.328125 242.671875 C 11.28125 245.128906 11.160156 245.09375 9.605469 242.183594 C 8.6875 240.464844 7.511719 237.648438 6.988281 235.929688 C 6.074219 232.910156 6.125 232.878906 8.460938 234.960938 C 10.773438 237.019531 11.554688 236.863281 25.703125 231.496094 C 33.851563 228.402344 40.777344 226.128906 41.085938 226.441406 C 41.398438 226.75 37.453125 233.65625 32.320313 241.789063 C 27.1875 249.917969 23.167969 256.78125 23.390625 257.042969 C 23.609375 257.300781 28.878906 255.628906 35.097656 253.324219 C 43.527344 250.199219 46.40625 248.566406 46.40625 246.910156 C 46.40625 243.316406 48.285156 244.351563 49.90625 248.839844 C 51.921875 254.40625 51.816406 254.96875 49.082031 253.261719 C 45.496094 251.023438 21.085938 260.679688 20.132813 264.710938 C 19.460938 267.5625 19.449219 267.5625 17.917969 264.203125 Z M 326.324219 277.972656 C 323.0625 275.496094 323.667969 274.410156 327.800781 275.316406 C 331.925781 276.222656 334.144531 273.648438 334.144531 267.957031 C 334.144531 262.234375 330.488281 261.851563 321.070313 266.589844 C 313.285156 270.507813 312.28125 270.722656 308.671875 269.25 C 301.542969 266.34375 301.09375 258.117188 307.664063 250.761719 C 310.726563 247.339844 311.5 247.035156 313.894531 248.316406 C 317.851563 250.433594 317.25 252.253906 312.878906 251.378906 C 309.539063 250.710938 308.945313 251.074219 307.414063 254.714844 C 303.476563 264.085938 308.570313 266.632813 320.222656 261.121094 C 329.410156 256.777344 334.148438 257.429688 336.609375 263.371094 C 338.132813 267.046875 336.546875 272.523438 332.507813 277.523438 C 330.414063 280.117188 329.261719 280.203125 326.324219 277.972656 Z M 28.625 282.886719 L 25.253906 277.296875 L 28.636719 277.917969 C 31.253906 278.402344 34.613281 276.859375 43.5 271.09375 C 53.085938 264.871094 54.867188 263.214844 54.300781 261.046875 C 53.195313 256.816406 54.699219 258.039063 58.796875 264.703125 C 60.914063 268.144531 62.121094 270.957031 61.480469 270.957031 C 60.839844 270.957031 59.945313 270.355469 59.488281 269.621094 C 58.371094 267.816406 56.394531 268.707031 43.570313 276.796875 C 34.644531 282.429688 32.707031 284.191406 33.3125 286.109375 C 34.667969 290.371094 32.070313 288.585938 28.625 282.886719 Z M 146.488281 64.921875 L 158.371094 60.597656 L 148.363281 61.222656 C 135.023438 62.054688 130.226563 63.828125 130.226563 67.921875 C 130.226563 70.421875 130.671875 70.878906 132.414063 70.152344 C 133.617188 69.65625 139.953125 67.300781 146.488281 64.921875 Z M 175.09375 71.371094 C 184.292969 69.453125 215.257813 68.566406 220.046875 70.085938 C 222.871094 70.984375 225.914063 67.9375 224.882813 65.246094 C 223.683594 62.125 214.039063 60.304688 198.40625 60.25 C 184.398438 60.203125 167.78125 62.203125 164.296875 64.355469 C 163.113281 65.089844 163.109375 66.164063 164.292969 69.292969 C 165.121094 71.496094 165.820313 73.296875 165.839844 73.292969 C 165.863281 73.292969 170.023438 72.429688 175.09375 71.371094 Z M 200.90625 79.785156 C 216.050781 78.984375 217.171875 78.753906 217.171875 76.421875 C 217.171875 74.105469 216.199219 73.890625 204.035156 73.507813 C 191.339844 73.109375 172.355469 74.980469 169.175781 76.945313 C 167.984375 77.679688 167.957031 78.625 169.058594 81.035156 L 170.484375 84.171875 L 177.566406 82.40625 C 181.460938 81.4375 191.964844 80.257813 200.90625 79.785156 Z M 216.546875 84.421875 C 216.546875 83.804688 215.703125 83.304688 214.671875 83.304688 C 213.636719 83.304688 212.792969 84.128906 212.792969 85.140625 C 212.792969 86.261719 213.527344 86.695313 214.671875 86.257813 C 215.703125 85.863281 216.546875 85.035156 216.546875 84.421875 Z M 201.011719 88.316406 C 207.941406 88.304688 209.21875 87.726563 208.195313 85.058594 C 207.765625 83.941406 205.636719 83.304688 202.339844 83.308594 C 197.152344 83.3125 173.917969 86.730469 173.027344 87.621094 C 172.769531 87.882813 173.148438 89.195313 173.867188 90.539063 C 175.160156 92.957031 175.304688 92.957031 184.914063 90.65625 C 190.269531 89.375 197.515625 88.324219 201.011719 88.316406 Z M 170.003906 93.082031 C 170.269531 91.710938 169.425781 90.863281 167.515625 90.59375 C 165.050781 90.242188 164.628906 89.453125 164.628906 85.179688 C 164.628906 80.941406 164.195313 80.113281 161.8125 79.777344 C 158.863281 79.355469 158.507813 78.078125 160.179688 73.921875 C 162.316406 68.605469 156.507813 65.195313 149.734375 67.792969 C 147.992188 68.460938 147.980469 68.835938 149.632813 71.199219 C 150.65625 72.65625 151.492188 75.097656 151.492188 76.617188 C 151.492188 78.261719 152.484375 79.695313 153.9375 80.15625 C 155.28125 80.585938 157.085938 82.871094 157.941406 85.242188 C 158.796875 87.609375 160.484375 89.859375 161.6875 90.242188 C 162.890625 90.625 164.234375 92.066406 164.671875 93.445313 C 165.609375 96.402344 169.414063 96.140625 170.003906 93.082031 Z M 189.40625 96.265625 C 190.738281 94.933594 189.070313 93.371094 187.113281 94.121094 C 186.109375 94.507813 185.597656 95.328125 185.976563 95.945313 C 186.789063 97.257813 188.277344 97.394531 189.40625 96.265625 Z M 160.875 96.347656 C 160.875 94.683594 159.757813 93.769531 157.1875 93.324219 C 153.941406 92.761719 153.488281 92.15625 153.433594 88.304688 C 153.375 84.242188 153.113281 83.957031 149.777344 84.3125 C 146.273438 84.6875 146.203125 84.582031 147.042969 80.121094 C 147.6875 76.667969 147.371094 74.964844 145.75 73.171875 C 143.144531 70.292969 143.003906 70.285156 137.007813 72.789063 C 133.097656 74.425781 132.59375 74.996094 134.257813 75.929688 C 135.378906 76.554688 136.941406 79.035156 137.734375 81.4375 C 138.691406 84.335938 139.957031 85.804688 141.492188 85.804688 C 143.921875 85.804688 149.363281 91.695313 148.390625 93.273438 C 148.078125 93.777344 150.054688 94.859375 152.785156 95.679688 C 155.515625 96.496094 157.746094 97.753906 157.746094 98.46875 C 157.746094 99.1875 158.453125 99.539063 159.3125 99.253906 C 160.171875 98.96875 160.875 97.660156 160.875 96.347656 Z M 199.03125 98.316406 C 200.40625 96.9375 202.660156 95.8125 204.035156 95.8125 C 205.425781 95.8125 206.539063 94.980469 206.539063 93.9375 C 206.539063 92.894531 205.425781 92.0625 204.035156 92.0625 C 202.660156 92.0625 201.535156 92.644531 201.535156 93.359375 C 201.535156 94.074219 199.984375 94.496094 198.09375 94.296875 C 195.164063 93.988281 194.59375 94.445313 194.257813 97.378906 C 193.789063 101.441406 195.558594 101.789063 199.03125 98.316406 Z M 164.886719 106.355469 C 169.960938 102.910156 175.863281 102.898438 178.429688 106.328125 C 179.523438 107.789063 180.265625 107.769531 183.273438 106.191406 C 185.226563 105.167969 188.445313 104.570313 190.425781 104.859375 C 195.164063 105.554688 194.972656 105.097656 189.335938 102.265625 C 178.191406 96.660156 175.964844 96.5 167.105469 100.644531 C 160.996094 103.503906 159 105.070313 159 107.007813 C 159 110.253906 159.164063 110.234375 164.886719 106.355469 Z M 214.421875 110.398438 C 215.691406 107.089844 223.582031 104.570313 232.6875 104.570313 C 240.023438 104.570313 242.019531 104.117188 244.175781 101.960938 C 247.65625 98.484375 246.527344 94.121094 240.542969 87.890625 C 229.769531 76.671875 219.078125 76.347656 221.171875 87.300781 C 221.761719 90.394531 221.5 90.640625 217.742188 90.535156 C 212.816406 90.394531 210 93.597656 211.121094 98.066406 C 211.863281 101.023438 211.699219 101.125 207.515625 100.339844 C 202.433594 99.386719 199.851563 101.492188 200.5 106.066406 C 200.804688 108.226563 201.847656 109.050781 204.660156 109.359375 C 206.726563 109.582031 208.949219 110.285156 209.601563 110.921875 C 211.324219 112.59375 213.675781 112.339844 214.421875 110.398438 Z M 152.742188 108.421875 C 153.777344 107.875 154.621094 105.796875 154.621094 103.808594 C 154.621094 100.355469 154.363281 100.191406 148.996094 100.191406 L 143.371094 100.191406 L 143.769531 95.546875 C 144.113281 91.554688 143.765625 90.8125 141.265625 90.246094 C 139.664063 89.886719 137.230469 89.722656 135.855469 89.886719 C 133.730469 90.140625 133.414063 89.558594 133.757813 86.042969 C 134.792969 75.371094 125.144531 75.917969 114.226563 87.152344 C 109.382813 92.132813 108.113281 96.097656 110.023438 100.285156 C 111.289063 103.0625 112.128906 103.320313 119.878906 103.328125 C 131.109375 103.335938 137.164063 105.15625 140.359375 109.480469 C 143.125 113.21875 143.804688 113.160156 152.742188 108.421875 Z M 174.011719 123.335938 C 174.011719 122.648438 173.449219 122.085938 172.761719 122.085938 C 172.070313 122.085938 171.507813 122.648438 171.507813 123.335938 C 171.507813 124.023438 172.070313 124.585938 172.761719 124.585938 C 173.449219 124.585938 174.011719 124.023438 174.011719 123.335938 Z M 187.773438 124.488281 C 187.773438 122.246094 187.25 122 184.019531 122.710938 C 180.789063 123.421875 180.265625 123.171875 180.265625 120.933594 C 180.265625 119.503906 179.703125 118.332031 179.015625 118.332031 C 177.0625 118.332031 177.546875 122.941406 179.730469 125.121094 C 182.703125 128.097656 187.773438 127.695313 187.773438 124.488281 Z M 208.878906 123.335938 C 210.066406 123.335938 211.789063 124.039063 212.703125 124.898438 C 214.074219 126.1875 214.21875 125.800781 213.53125 122.710938 C 212.628906 118.640625 207.53125 113.328125 204.535156 113.328125 C 202.664063 113.328125 202.796875 117.152344 204.960938 125.839844 C 205.722656 128.898438 205.75 128.90625 206.226563 126.152344 C 206.511719 124.503906 207.609375 123.335938 208.878906 123.335938 Z M 220.65625 129.570313 C 220.292969 128.183594 219.503906 126.742188 218.898438 126.371094 C 217.648438 125.597656 217.371094 131.25 218.597656 132.476563 C 220.050781 133.933594 221.328125 132.132813 220.65625 129.570313 Z M 137.75 132.40625 C 137.757813 131.890625 138.082031 130.058594 138.46875 128.339844 C 139.144531 125.320313 139.101563 125.296875 137.199219 127.640625 C 134.972656 130.382813 134.601563 133.34375 136.480469 133.34375 C 137.167969 133.34375 137.738281 132.921875 137.75 132.40625 Z M 177.566406 131.597656 C 177.886719 129.921875 177.472656 129.433594 176.167969 129.9375 C 175.148438 130.328125 173.683594 130.015625 172.914063 129.242188 C 171 127.332031 168.398438 129.953125 169.460938 132.71875 C 170.570313 135.613281 176.972656 134.730469 177.566406 131.597656 Z M 231.828125 130.707031 C 233.664063 127.878906 235.761719 122.769531 236.496094 119.351563 C 237.230469 115.933594 238.449219 111.976563 239.210938 110.554688 C 240.558594 108.035156 240.378906 107.988281 231.0625 108.589844 C 224.28125 109.023438 220.816406 109.851563 219.039063 111.457031 C 215.925781 114.277344 215.8125 119.101563 218.824219 120.714844 C 220.839844 121.792969 223.734375 127.175781 225.785156 133.65625 C 226.835938 136.988281 228.183594 136.332031 231.828125 130.707031 Z M 131.457031 130.703125 C 131.46875 129.597656 132.796875 126.742188 134.410156 124.363281 C 138.523438 118.304688 139.421875 113.945313 137.050781 111.574219 C 132.753906 107.277344 116.878906 105.558594 118.207031 109.535156 C 118.558594 110.589844 119.953125 115.210938 121.304688 119.804688 C 125.097656 132.703125 131.375 139.441406 131.457031 130.703125 Z M 162.5625 136.035156 C 163.832031 134.765625 165.265625 131.277344 165.742188 128.289063 C 166.40625 124.140625 167.8125 121.746094 171.671875 118.183594 C 177.695313 112.621094 177.804688 109.140625 171.980469 108.570313 C 166.589844 108.042969 162.046875 113.566406 160.878906 122.066406 C 159.597656 131.371094 156.003906 134.246094 151.085938 129.902344 C 148.660156 127.761719 148.625 127.804688 149.445313 132.03125 C 149.902344 134.40625 150.976563 136.789063 151.824219 137.328125 C 154.582031 139.082031 160.191406 138.40625 162.5625 136.035156 Z M 208.761719 137.652344 C 210.441406 136.476563 211.542969 134.398438 211.542969 132.398438 C 211.542969 129.824219 211.207031 129.425781 210.039063 130.59375 C 207.820313 132.8125 203.035156 132.414063 201.75 129.902344 C 201.132813 128.699219 200.253906 125.28125 199.800781 122.308594 C 198.804688 115.78125 196.300781 111.691406 192.148438 109.800781 C 188.628906 108.199219 185.796875 108.898438 184.746094 111.640625 C 183.96875 113.664063 185.976563 118.332031 187.625 118.332031 C 190.460938 118.332031 194.148438 123.582031 195.175781 129.082031 C 196.898438 138.292969 202.65625 141.929688 208.761719 137.652344 Z M 190.851563 137.914063 C 193.847656 135.722656 192.230469 133.121094 188.457031 134.066406 C 186.855469 134.46875 185.167969 134.191406 184.707031 133.445313 C 183.65625 131.746094 181.515625 131.679688 181.515625 133.34375 C 181.515625 134.839844 186.09375 139.601563 187.53125 139.601563 C 188.089844 139.601563 189.582031 138.839844 190.851563 137.914063 Z M 223.523438 145.28125 C 224.679688 140.6875 223.652344 139.0625 219.472656 138.851563 C 216.070313 138.679688 215.753906 138.980469 216.226563 141.945313 C 217.113281 147.527344 217.636719 148.355469 220.234375 148.355469 C 221.867188 148.355469 223.027344 147.273438 223.523438 145.28125 Z M 140.367188 144.914063 C 141.097656 143.023438 142.492188 139.882813 143.46875 137.933594 C 144.441406 135.984375 145.238281 132.925781 145.238281 131.132813 C 145.238281 127.648438 149.601563 122.085938 152.335938 122.085938 C 153.246094 122.085938 153.996094 123.210938 153.996094 124.585938 C 153.996094 125.964844 154.558594 127.089844 155.246094 127.089844 C 155.933594 127.089844 156.496094 125.4375 156.496094 123.417969 C 156.496094 121.398438 157.046875 118.300781 157.71875 116.535156 C 158.886719 113.464844 158.746094 113.328125 154.492188 113.328125 C 151.25 113.328125 149.0625 114.316406 146.390625 116.984375 C 143.226563 120.152344 142.734375 121.574219 142.734375 127.617188 C 142.734375 135.582031 139.84375 139.917969 135.320313 138.734375 C 133.28125 138.203125 132.726563 138.640625 132.726563 140.785156 C 132.726563 144.574219 134.953125 148.355469 137.175781 148.355469 C 138.199219 148.355469 139.632813 146.808594 140.367188 144.914063 Z M 151.492188 149.117188 C 151.492188 147.929688 147.746094 147.332031 147.078125 148.410156 C 146.675781 149.070313 147.5 149.609375 148.917969 149.609375 C 150.335938 149.609375 151.492188 149.386719 151.492188 149.117188 Z M 212.792969 144.230469 C 212.792969 142.195313 212.261719 141.03125 211.542969 141.476563 C 210.855469 141.902344 210.289063 143.027344 210.289063 143.980469 C 210.289063 144.933594 209.125 146.527344 207.699219 147.527344 C 205.855469 148.820313 205.585938 149.503906 206.761719 149.902344 C 209.644531 150.882813 212.792969 147.917969 212.792969 144.230469 Z M 228.542969 149.925781 C 227.195313 148.582031 226.480469 150.464844 227.425781 152.867188 C 228.3125 155.125 228.378906 155.128906 228.816406 152.949219 C 229.070313 151.691406 228.945313 150.332031 228.542969 149.925781 Z M 130.207031 150.546875 C 130.214844 150.03125 129.660156 149.609375 128.972656 149.609375 C 128.285156 149.609375 127.730469 150.875 127.742188 152.421875 C 127.757813 154.699219 127.992188 154.878906 128.972656 153.359375 C 129.640625 152.328125 130.195313 151.0625 130.207031 150.546875 Z M 254.289063 156.296875 C 255.550781 155.15625 256.578125 153.5 256.578125 152.613281 C 256.578125 149.4375 259.265625 149.441406 262.214844 152.621094 C 266.164063 156.886719 269.789063 156.714844 274.136719 152.066406 C 276.894531 149.113281 278.371094 148.441406 280.777344 149.042969 C 284.574219 149.996094 288.664063 147.960938 289.738281 144.578125 C 290.179688 143.1875 289.601563 139.222656 288.453125 135.765625 L 286.367188 129.480469 L 283.417969 132.664063 C 280.777344 135.515625 277.675781 136.515625 273.222656 135.953125 C 272.394531 135.851563 271.152344 136.832031 270.453125 138.136719 C 268.675781 141.460938 262.738281 143.699219 259.1875 142.386719 C 256.875 141.53125 255.605469 142.015625 252.785156 144.839844 C 250.507813 147.113281 247.953125 148.355469 245.554688 148.355469 C 240.785156 148.355469 235.855469 144.492188 236.960938 141.617188 C 237.703125 139.683594 238.097656 139.734375 241.40625 142.179688 C 246.117188 145.664063 249.738281 144.519531 251.769531 138.90625 C 253.402344 134.394531 255.808594 133.277344 257.03125 136.472656 C 257.476563 137.636719 259.382813 138.347656 262.046875 138.347656 C 265.699219 138.347656 266.539063 137.785156 267.660156 134.570313 C 268.898438 131.019531 269.269531 130.839844 273.871094 131.578125 C 278.066406 132.246094 279.0625 131.941406 280.808594 129.445313 C 283.96875 124.9375 283.300781 122.03125 277.367188 114.480469 C 268.589844 103.296875 257.398438 99.894531 249.015625 105.863281 C 244.96875 108.746094 240.316406 116.691406 240.316406 120.726563 C 240.316406 123.765625 237.976563 129.445313 235.5 132.40625 C 234.339844 133.800781 233.507813 138.257813 233.214844 144.664063 L 232.753906 154.734375 L 236.886719 153.960938 C 240.113281 153.355469 241.53125 153.753906 243.363281 155.773438 C 246.1875 158.894531 251.15625 159.128906 254.289063 156.296875 Z M 115.667969 155.609375 C 117.328125 153.863281 118.910156 153.390625 121.164063 153.953125 L 124.328125 154.75 L 123.660156 147.34375 C 123.289063 143.273438 123.460938 139.171875 124.039063 138.234375 C 124.683594 137.191406 124.429688 135.785156 123.386719 134.625 C 121.542969 132.566406 118.820313 125.730469 116.640625 117.671875 C 115.863281 114.792969 113.355469 110.769531 110.796875 108.289063 C 106.851563 104.464844 105.539063 103.945313 99.820313 103.945313 C 91.957031 103.945313 85.023438 108.335938 79.039063 117.105469 C 74.382813 123.933594 74.238281 126.261719 78.234375 130.257813 C 80.632813 132.65625 82.101563 133.148438 85.089844 132.550781 C 88.34375 131.898438 89.0625 132.246094 90.09375 134.964844 C 91.820313 139.503906 95.953125 140.4375 100.253906 137.257813 L 103.773438 134.652344 L 106.054688 139.316406 C 108.617188 144.558594 113.503906 146.132813 116.84375 142.796875 C 120.933594 138.703125 123.308594 141.746094 119.398438 146.070313 C 116.265625 149.527344 108.839844 149.097656 105.222656 145.246094 C 102.796875 142.667969 101.519531 142.261719 97.738281 142.867188 C 94.015625 143.460938 92.464844 142.996094 89.3125 140.347656 C 87.191406 138.558594 84.027344 137.097656 82.289063 137.097656 C 80.546875 137.097656 77.464844 135.699219 75.4375 133.992188 L 71.75 130.890625 L 69.636719 136.417969 C 67.675781 141.558594 67.671875 142.21875 69.585938 145.925781 C 71.488281 149.601563 72.023438 149.855469 76.558594 149.25 C 80.691406 148.695313 81.699219 149.019531 82.890625 151.289063 C 84.769531 154.855469 86.375 155.820313 90.476563 155.84375 C 92.746094 155.855469 94.574219 154.816406 95.9375 152.734375 C 98.6875 148.539063 100.976563 148.789063 101.894531 153.390625 C 103.167969 159.757813 110.578125 160.949219 115.667969 155.609375 Z M 235.3125 160.375 C 235.3125 160.105469 234.4375 159.546875 233.371094 159.140625 C 232.257813 158.710938 231.753906 158.921875 232.191406 159.628906 C 232.929688 160.820313 235.3125 161.390625 235.3125 160.375 Z M 125.222656 158.855469 C 125.222656 158.585938 124.378906 158.363281 123.34375 158.363281 C 122.3125 158.363281 121.46875 158.910156 121.46875 159.578125 C 121.46875 160.242188 122.3125 160.464844 123.34375 160.066406 C 124.378906 159.671875 125.222656 159.128906 125.222656 158.855469 Z M 225.179688 161.328125 C 224.652344 157.453125 223.671875 153.730469 222.996094 153.054688 C 221.289063 151.351563 219.046875 153.011719 219.046875 155.976563 C 219.046875 157.332031 218.203125 158.769531 217.171875 159.164063 C 214.199219 160.304688 214.988281 162.117188 218.453125 162.117188 C 220.671875 162.117188 221.964844 163.050781 222.800781 165.246094 C 224.886719 170.726563 226.167969 168.613281 225.179688 161.328125 Z M 133.753906 164.835938 C 134.058594 162.753906 135.011719 162.117188 137.816406 162.117188 C 141.960938 162.117188 142.296875 161.5 139.609375 158.8125 C 138.574219 157.78125 137.730469 155.847656 137.730469 154.523438 C 137.730469 151.960938 134.683594 151.210938 133.308594 153.429688 C 131.691406 156.050781 130.566406 168.46875 131.992188 168 C 132.742188 167.753906 133.53125 166.328125 133.753906 164.835938 Z M 232.808594 182.863281 C 232.808594 182.621094 231.683594 182.132813 230.308594 181.773438 C 228.441406 181.285156 227.804688 181.734375 227.804688 183.546875 C 227.804688 185.589844 228.203125 185.761719 230.308594 184.636719 C 231.683594 183.898438 232.808594 183.101563 232.808594 182.863281 Z M 138.980469 185.960938 C 138.980469 185.3125 138.421875 184.4375 137.730469 184.011719 C 135.714844 182.765625 136.304688 178.046875 138.980469 174.003906 C 141.875 169.632813 142.230469 165.871094 139.75 165.871094 C 135.617188 165.871094 132.410156 179.367188 135.273438 184.71875 C 136.617188 187.230469 138.980469 188.019531 138.980469 185.960938 Z M 222.898438 185.703125 C 224.839844 182.078125 223.613281 172.054688 221.058594 170.625 C 219.953125 170.007813 219.046875 168.683594 219.046875 167.6875 C 219.046875 166.6875 218.484375 165.871094 217.796875 165.871094 C 215.695313 165.871094 216.417969 171.28125 219.046875 175.253906 C 221.726563 179.300781 222.316406 184.015625 220.300781 185.261719 C 218.703125 186.25 218.671875 188.390625 220.253906 188.390625 C 220.917969 188.390625 222.109375 187.179688 222.898438 185.703125 Z M 130.6875 184.769531 C 130.125 181.949219 129.34375 180.953125 128.074219 181.441406 C 127.082031 181.820313 125.714844 182.136719 125.039063 182.136719 C 124.363281 182.136719 125.394531 183.757813 127.332031 185.746094 C 129.265625 187.730469 130.996094 189.226563 131.171875 189.070313 C 131.347656 188.917969 131.132813 186.980469 130.6875 184.769531 Z M 256.199219 188.375 C 258.757813 174.660156 258.605469 173.980469 252.949219 173.832031 L 248.070313 173.703125 L 247.253906 180.734375 C 246.804688 184.601563 246.132813 189.546875 245.757813 191.726563 C 245.175781 195.144531 245.484375 195.769531 248.015625 196.261719 C 253.96875 197.417969 254.636719 196.777344 256.199219 188.375 Z M 112.371094 194.644531 C 112.746094 194.644531 111.476563 179.914063 110.808594 176.503906 C 110.414063 174.496094 109.320313 174.003906 105.257813 174.003906 C 99.507813 174.003906 99.585938 173.765625 101.539063 185.785156 C 103.464844 197.585938 103.210938 197.1875 107.945313 195.828125 C 110.214844 195.175781 112.203125 194.644531 112.371094 194.644531 Z M 217.941406 214.347656 C 218.972656 213.488281 221.449219 210.53125 223.445313 207.78125 C 228.011719 201.492188 229.667969 200.097656 236.175781 197.046875 C 242.152344 194.25 242.8125 192.105469 243.261719 174.074219 C 243.421875 167.570313 244.03125 164.007813 245.039063 163.671875 C 245.882813 163.390625 246.570313 163.769531 246.570313 164.515625 C 246.570313 165.261719 247.683594 166.984375 249.046875 168.34375 C 251.640625 170.941406 254.28125 170.675781 258.0625 167.433594 C 260.550781 165.300781 262.835938 166.324219 262.835938 169.574219 C 262.835938 171.984375 268.40625 174.695313 271.304688 173.699219 C 272.179688 173.398438 273.796875 171.40625 274.898438 169.277344 L 276.902344 165.402344 L 280.1875 169.402344 C 284.316406 174.421875 289.375 174.789063 292.332031 170.277344 C 293.945313 167.8125 294.179688 165.566406 293.46875 159.332031 C 292.359375 149.59375 292.082031 149.132813 288.746094 151.472656 C 287.261719 152.511719 284.425781 153.359375 282.441406 153.359375 C 280.417969 153.359375 277.199219 154.734375 275.117188 156.488281 C 271.148438 159.828125 266.742188 160.457031 262.648438 158.265625 C 260.691406 157.21875 259.625 157.367188 257.898438 158.929688 C 254.367188 162.125 248.757813 163.253906 244.679688 161.585938 C 241.546875 160.304688 240.734375 160.445313 238.503906 162.667969 C 237.09375 164.074219 235.308594 166.921875 234.542969 168.988281 C 233.773438 171.058594 232.726563 173.742188 232.214844 174.953125 C 231.480469 176.6875 231.738281 176.984375 233.421875 176.335938 C 235.800781 175.425781 237.765625 177.671875 237.796875 181.34375 C 237.804688 182.628906 235.578125 185.914063 232.847656 188.644531 C 228.554688 192.941406 227.371094 193.496094 224.09375 192.777344 C 220.628906 192.015625 220.300781 192.226563 220.300781 195.203125 C 220.300781 197.996094 217.890625 205.933594 214.679688 213.722656 C 213.625 216.277344 215.257813 216.589844 217.941406 214.347656 Z M 143.304688 213.722656 C 140.171875 206.511719 137.808594 198.484375 137.773438 194.957031 C 137.730469 190.960938 135.113281 189.292969 133.351563 192.144531 C 131.804688 194.648438 128.390625 193.28125 123.730469 188.285156 C 118.699219 182.890625 118.136719 181.019531 120.304688 176.96875 C 121.441406 174.84375 121.949219 174.714844 123.664063 176.109375 C 125.4375 177.550781 125.5625 177.441406 124.660156 175.253906 C 124.09375 173.878906 122.996094 171.015625 122.21875 168.890625 C 119.960938 162.71875 117.230469 160.636719 113.34375 162.117188 C 108.214844 164.066406 105.710938 163.636719 101.472656 160.066406 C 98.535156 157.597656 97.1875 157.121094 96.121094 158.191406 C 93.539063 160.773438 85.347656 159.890625 82.140625 156.683594 C 80.367188 154.90625 77.621094 153.703125 75.191406 153.636719 C 72.984375 153.574219 70.160156 152.605469 68.921875 151.484375 C 67.683594 150.363281 66.40625 149.902344 66.078125 150.464844 C 64.601563 153 63.914063 165.691406 65.085938 168.773438 C 67.609375 175.414063 76.292969 175.972656 78.308594 169.625 C 79.195313 166.832031 82.6875 166.175781 82.6875 168.804688 C 82.6875 169.730469 83.828125 171.523438 85.226563 172.785156 C 87.234375 174.605469 88.472656 174.835938 91.15625 173.890625 C 93.019531 173.238281 94.746094 171.585938 94.992188 170.222656 C 95.78125 165.847656 97.503906 165.253906 100.703125 168.257813 C 104.152344 171.5 108.140625 170.988281 110.253906 167.035156 C 112.875 162.140625 114.582031 164.371094 114.78125 172.945313 C 114.886719 177.523438 115.351563 184.308594 115.816406 188.023438 C 116.546875 193.859375 117.117188 194.945313 120.003906 195.988281 C 126.851563 198.464844 129.085938 200.230469 132.890625 206.15625 C 136.613281 211.960938 140.769531 215.910156 143.148438 215.910156 C 143.757813 215.910156 143.828125 214.925781 143.304688 213.722656 Z M 97.746094 205.53125 C 100.304688 200.621094 100.308594 200.441406 98.113281 189.101563 L 95.894531 177.632813 L 89.136719 177.695313 L 82.382813 177.757813 L 83.167969 187.140625 C 84.042969 197.597656 85.140625 202.234375 89.964844 215.910156 L 93.277344 225.296875 L 94.21875 217.898438 C 94.734375 213.828125 96.324219 208.265625 97.746094 205.53125 Z M 267.921875 216.703125 C 272.253906 204.277344 275.34375 189.566406 275.34375 181.355469 C 275.34375 176.085938 275.203125 175.867188 272.710938 177.199219 C 271.234375 177.992188 268.210938 178.261719 265.828125 177.8125 C 262.105469 177.113281 261.582031 177.335938 261.582031 179.628906 C 261.582031 181.066406 260.699219 186.511719 259.621094 191.730469 C 257.71875 200.953125 257.738281 201.40625 260.378906 207.542969 C 262.492188 212.453125 262.984375 215.617188 262.59375 221.761719 C 262.316406 226.109375 262.542969 229.214844 263.097656 228.660156 C 263.648438 228.109375 265.820313 222.726563 267.921875 216.703125 Z M 194.027344 162.839844 C 197.441406 160.785156 202 160.476563 205.914063 162.042969 C 207.671875 162.746094 206.738281 163 202.785156 162.894531 C 199.6875 162.8125 195.746094 163.1875 194.027344 163.734375 L 190.898438 164.726563 Z M 159 163.476563 C 152.996094 162.835938 152.597656 162.636719 155.871094 161.910156 C 160.074219 160.972656 166.1875 161.839844 167.222656 163.519531 C 167.597656 164.125 167.449219 164.527344 166.890625 164.414063 C 166.335938 164.304688 162.78125 163.882813 159 163.476563 Z M 195.277344 175.726563 C 195.277344 173.515625 194.964844 173.328125 193.414063 174.617188 C 191.53125 176.179688 191.933594 178.382813 194.101563 178.382813 C 194.75 178.382813 195.277344 177.1875 195.277344 175.726563 Z M 207.789063 177.070313 C 207.789063 176.496094 207.226563 175.679688 206.539063 175.253906 C 205.851563 174.828125 205.285156 174.75 205.285156 175.078125 C 205.285156 175.40625 204.941406 176.570313 204.523438 177.667969 C 203.960938 179.128906 204.296875 179.453125 205.773438 178.886719 C 206.882813 178.460938 207.789063 177.644531 207.789063 177.070313 Z M 193.402344 182.425781 C 190.089844 181.90625 189.941406 181.71875 192.152344 180.824219 C 194.527344 179.859375 194.511719 179.804688 191.839844 179.71875 C 186.191406 179.542969 189.449219 171.757813 195.839844 170.152344 C 201.097656 168.835938 205.585938 170.144531 208.289063 173.789063 C 210.882813 177.277344 210.882813 177.351563 208.488281 179.105469 C 207.152344 180.082031 204.164063 180.882813 201.847656 180.882813 C 199.355469 180.882813 197.949219 181.394531 198.40625 182.136719 C 198.832031 182.824219 198.722656 183.300781 198.167969 183.199219 C 197.609375 183.09375 195.464844 182.746094 193.402344 182.425781 Z M 155.246094 175.179688 C 155.246094 174.105469 154.683594 173.578125 153.996094 174.003906 C 153.308594 174.429688 152.742188 175.304688 152.742188 175.953125 C 152.742188 176.601563 153.308594 177.128906 153.996094 177.128906 C 154.683594 177.128906 155.246094 176.253906 155.246094 175.179688 Z M 168.085938 177.632813 C 169.089844 176.632813 167.777344 173.378906 166.371094 173.378906 C 165.757813 173.378906 165.253906 174.503906 165.253906 175.878906 C 165.253906 178.316406 166.582031 179.140625 168.085938 177.632813 Z M 166.503906 182.308594 C 166.503906 181.714844 164.957031 181.476563 163.066406 181.78125 C 160.375 182.210938 160.035156 182.039063 161.5 181 C 162.980469 179.949219 162.503906 179.667969 159.230469 179.652344 C 154.644531 179.632813 150.242188 177.734375 150.242188 175.777344 C 150.242188 175.082031 151.625 173.132813 153.3125 171.445313 C 156.488281 168.269531 163.148438 167.230469 164.660156 169.675781 C 165.101563 170.390625 166.46875 170.65625 167.695313 170.269531 C 169.332031 169.75 170.347656 170.570313 171.492188 173.339844 C 172.816406 176.535156 172.742188 177.597656 171.003906 180.25 C 168.996094 183.316406 166.503906 184.453125 166.503906 182.308594 Z M 175.886719 199.992188 C 170.199219 198.601563 168.421875 193.964844 172.339844 190.730469 C 174.222656 189.179688 174.28125 189.277344 172.964844 191.746094 C 171.023438 195.390625 171.117188 195.898438 173.699219 195.683594 C 180.78125 195.089844 189.671875 197.058594 187.734375 198.789063 C 186.640625 199.773438 178.40625 200.605469 175.886719 199.992188 Z M 179.015625 213.714844 C 167.707031 213.269531 165.175781 212.566406 166.109375 210.132813 C 166.804688 208.320313 166.988281 208.332031 168.046875 210.222656 C 169.132813 212.164063 169.4375 212.164063 172.363281 210.246094 C 176.792969 207.347656 183.359375 206.730469 185.277344 209.039063 C 186.945313 211.050781 189.804688 211.53125 190.484375 209.917969 C 190.714844 209.371094 191.828125 209.882813 192.96875 211.046875 C 194.898438 213.023438 194.773438 213.195313 191.089844 213.601563 C 188.921875 213.839844 183.488281 213.890625 179.015625 213.714844 Z M 175.8125 220.328125 C 173.5625 218.621094 173.769531 218.503906 178.703125 218.65625 C 182.222656 218.769531 184.019531 219.390625 184.019531 220.496094 C 184.019531 222.730469 178.847656 222.625 175.8125 220.328125 Z M 197.535156 225.023438 C 207.542969 217.726563 211.929688 211.652344 214.816406 201.085938 C 216.527344 194.824219 216.675781 192.636719 215.515625 190.78125 C 213.433594 187.445313 213.691406 184.546875 216.230469 182.6875 C 218.285156 181.183594 218.238281 180.84375 215.460938 177.089844 C 213.078125 173.863281 212.433594 171.25 212.140625 163.636719 C 211.789063 154.507813 211.671875 154.183594 208.621094 154.050781 C 204.542969 153.871094 200.28125 149.984375 200.28125 146.441406 C 200.28125 141.8125 197.136719 140.128906 191.976563 141.992188 C 187.019531 143.785156 181.039063 142.167969 179.699219 138.671875 C 179.0625 137.015625 178.5 137.144531 175.960938 139.53125 C 173.765625 141.59375 171.699219 142.261719 168.175781 142.046875 C 157.769531 141.410156 156.496094 141.804688 156.496094 145.660156 C 156.496094 149.992188 153.394531 153.011719 148.363281 153.570313 C 146.21875 153.808594 144.742188 154.648438 144.917969 155.53125 C 145.085938 156.378906 145.300781 160.421875 145.390625 164.511719 C 145.523438 170.371094 144.996094 172.664063 142.898438 175.332031 C 139.78125 179.289063 139.453125 182.136719 142.109375 182.136719 C 144.316406 182.136719 144.710938 187.792969 142.597656 189.101563 C 138.875 191.402344 146.355469 214.507813 152.671875 220.226563 C 154.042969 221.464844 159.429688 224.523438 164.640625 227.023438 C 172.675781 230.875 175.269531 231.53125 181.675781 231.324219 C 188.554688 231.101563 189.972656 230.539063 197.535156 225.023438 Z M 253.796875 239.367188 C 255.675781 237.066406 259.082031 224.808594 259.074219 220.378906 C 259.0625 213.996094 256.71875 207.566406 252.917969 203.5 C 246.039063 196.136719 234.269531 199.015625 226.867188 209.875 C 224.839844 212.851563 222.828125 216.730469 222.398438 218.496094 C 221.378906 222.699219 224.511719 227.171875 228.476563 227.171875 C 230.679688 227.171875 231.730469 228.039063 232.304688 230.332031 C 233.234375 234.042969 236.40625 236.0625 239.875 235.15625 C 241.65625 234.691406 242.746094 235.402344 243.804688 237.722656 C 244.882813 240.09375 246.214844 240.933594 248.894531 240.933594 C 250.886719 240.933594 253.09375 240.230469 253.796875 239.367188 Z M 110.925781 239.976563 C 111.664063 239.46875 112.648438 238.027344 113.113281 236.765625 C 113.765625 235.003906 114.769531 234.65625 117.476563 235.25 C 121.335938 236.097656 124.601563 233.546875 125.417969 229.046875 C 125.699219 227.488281 127.042969 226.394531 128.988281 226.144531 C 132.511719 225.691406 135.230469 222.773438 135.230469 219.449219 C 135.230469 215.714844 126.671875 203.570313 122.53125 201.429688 C 117.734375 198.949219 108.511719 198.675781 105.792969 200.933594 C 98.910156 206.644531 96.503906 222 100.714844 233.375 C 103.328125 240.441406 106.886719 242.742188 110.925781 239.976563 Z M 184.875 255.25 L 190.328125 252.054688 L 186.550781 248.273438 C 184.066406 245.792969 182.769531 243.238281 182.769531 240.835938 C 182.769531 238.113281 182.179688 237.179688 180.457031 237.179688 C 178.734375 237.179688 178.117188 238.160156 178.035156 241.019531 C 177.90625 245.617188 175.890625 248.296875 171.03125 250.339844 L 167.425781 251.855469 L 172.910156 255.140625 C 175.921875 256.945313 178.621094 258.429688 178.90625 258.4375 C 179.1875 258.441406 181.875 257.007813 184.875 255.25 Z M 170.886719 262.199219 L 174.378906 260.871094 L 168.714844 257.28125 C 165.601563 255.304688 162.683594 253.089844 162.230469 252.359375 C 161.347656 250.933594 156.496094 254.988281 156.496094 257.152344 C 156.496094 258.671875 165.371094 264.777344 166.535156 264.058594 C 167.007813 263.765625 168.96875 262.929688 170.886719 262.199219 Z M 160.019531 266.519531 C 160.238281 266.347656 158.410156 264.675781 155.960938 262.808594 L 151.503906 259.410156 L 149.066406 262.367188 C 146.648438 265.308594 146.648438 265.339844 149.28125 267.375 C 151.398438 269.011719 152.707031 269.160156 155.777344 268.128906 C 157.894531 267.414063 159.800781 266.691406 160.019531 266.519531 Z M 230.988281 269.523438 L 236.617188 264.332031 L 232.957031 262.105469 C 230.84375 260.820313 228.964844 258.378906 228.515625 256.324219 C 228.011719 254.027344 226.457031 252.207031 224.117188 251.171875 C 222.019531 250.242188 219.960938 248.019531 219.214844 245.878906 C 218.242188 243.089844 217.144531 242.183594 214.734375 242.183594 C 210.53125 242.183594 206.539063 238.050781 206.539063 233.703125 C 206.539063 229.621094 209.664063 224.667969 212.238281 224.667969 C 214.542969 224.667969 214.507813 225.300781 211.988281 229.144531 C 210.324219 231.6875 210.210938 232.878906 211.382813 235.449219 C 212.613281 238.15625 213.515625 238.5625 217.5 238.214844 C 221.875 237.832031 222.203125 238.046875 222.597656 241.558594 C 223.203125 246.917969 225.15625 248.78125 229.300781 247.953125 C 232.660156 247.28125 232.808594 247.457031 232.808594 252.070313 C 232.808594 261.820313 239.804688 262.054688 246.257813 252.515625 C 251.109375 245.351563 251.203125 244.6875 247.390625 244.6875 C 245.777344 244.6875 243.4375 243.558594 242.191406 242.183594 C 240.945313 240.808594 238.964844 239.683594 237.789063 239.683594 C 235.054688 239.683594 229.058594 235.003906 229.058594 232.867188 C 229.058594 231.972656 227.328125 230.890625 225.214844 230.46875 C 222.226563 229.871094 220.910156 228.59375 219.273438 224.695313 C 216.59375 218.3125 213.097656 218.09375 206.039063 223.867188 C 203.21875 226.179688 197.980469 229.867188 194.402344 232.066406 C 186.976563 236.632813 185.429688 239.703125 188.324219 244.121094 C 190.757813 247.835938 194.546875 248.070313 197.445313 244.6875 C 201.40625 240.0625 204.445313 242.058594 201.246094 247.183594 C 199.96875 249.226563 200.082031 250.023438 201.890625 251.835938 C 203.75 253.695313 204.464844 253.777344 206.679688 252.394531 C 210.007813 250.316406 210.917969 251.300781 210.917969 256.988281 C 210.917969 260.945313 211.34375 261.625 214.042969 261.949219 C 219.960938 262.65625 220.410156 263.085938 218.84375 266.53125 C 217.644531 269.160156 217.78125 270.117188 219.667969 272.203125 C 222.910156 275.78125 224.640625 275.371094 230.988281 269.523438 Z M 137.058594 272.257813 C 139.359375 269.71875 138.929688 263.449219 136.457031 263.449219 C 135.78125 263.449219 135.230469 262.605469 135.230469 261.574219 C 135.230469 259.398438 136.933594 259.183594 140.226563 260.945313 C 144.132813 263.035156 146.695313 261.148438 146.296875 256.472656 C 145.851563 251.308594 146.765625 250.332031 150.28125 252.214844 C 152.511719 253.40625 153.40625 253.316406 154.988281 251.734375 C 156.613281 250.109375 156.683594 249.222656 155.40625 246.417969 C 153.257813 241.695313 155.425781 240.257813 158.984375 244.042969 C 165.863281 251.367188 178.433594 244.671875 172.449219 236.871094 C 171.585938 235.75 166.851563 232.832031 161.925781 230.382813 C 156.996094 227.933594 151.464844 224.34375 149.636719 222.402344 C 147.082031 219.695313 145.453125 219 142.644531 219.410156 C 140.152344 219.777344 138.980469 220.667969 138.980469 222.199219 C 138.980469 223.433594 137.152344 225.910156 134.917969 227.699219 C 132.679688 229.484375 130.378906 231.457031 129.800781 232.078125 C 129.226563 232.695313 127.421875 234.660156 125.792969 236.441406 C 124.066406 238.328125 121.480469 239.683594 119.597656 239.683594 C 117.816406 239.683594 115.152344 240.808594 113.675781 242.183594 C 112.195313 243.558594 109.96875 244.6875 108.722656 244.6875 C 107.476563 244.6875 106.457031 245.007813 106.457031 245.398438 C 106.457031 247.105469 114.28125 257.277344 116.511719 258.472656 C 121.230469 260.996094 126.5 255.667969 123.964844 250.933594 C 122.085938 247.421875 122.316406 247.1875 127.679688 247.1875 C 133.226563 247.1875 135.613281 244.550781 134.371094 239.796875 C 133.6875 237.179688 133.929688 237.058594 138.203125 237.859375 C 141.152344 238.410156 143.421875 238.167969 144.625 237.167969 C 146.828125 235.339844 147.074219 230.757813 145.070313 228.757813 C 144.292969 227.976563 144.023438 226.382813 144.472656 225.210938 C 145.234375 223.21875 145.453125 223.226563 147.765625 225.320313 C 153.234375 230.269531 149.289063 242.183594 142.179688 242.183594 C 140.53125 242.183594 139.011719 243.496094 137.992188 245.804688 C 137.109375 247.796875 134.78125 250.089844 132.820313 250.902344 C 130.40625 251.902344 129.011719 253.566406 128.519531 256.039063 C 128.0625 258.324219 126.316406 260.589844 123.878906 262.074219 L 119.972656 264.449219 L 126.460938 269.582031 C 130.03125 272.402344 133.378906 274.710938 133.898438 274.710938 C 134.414063 274.710938 135.839844 273.605469 137.058594 272.257813 Z M 118.609375 272.125 C 119.988281 269.371094 119.6875 268.621094 115.367188 264.078125 C 109.484375 257.898438 95.375 237.480469 91.152344 229.046875 C 84.050781 214.859375 78.933594 195.648438 78.933594 183.179688 L 78.933594 177.179688 L 73.46875 177.925781 C 70.019531 178.398438 67.683594 178.160156 67.140625 177.277344 C 65.394531 174.453125 62.878906 175.796875 63.3125 179.320313 C 63.546875 181.210938 64.0625 187.265625 64.460938 192.769531 C 65.378906 205.488281 70.257813 223.785156 75.589844 234.492188 C 84.882813 253.160156 99.488281 272.183594 106.957031 275.355469 C 111.671875 277.355469 116.6875 275.964844 118.609375 272.125 Z M 251.324219 276.6875 C 256.550781 273.941406 264.339844 265.121094 271.871094 253.425781 C 282.929688 236.246094 287.660156 225.359375 291.105469 209.175781 C 293.136719 199.621094 295.429688 177.101563 294.527344 175.582031 C 294.226563 175.070313 292.546875 175.597656 290.789063 176.746094 C 288.242188 178.414063 286.890625 178.566406 284.046875 177.492188 C 282.09375 176.753906 280.179688 176.464844 279.796875 176.847656 C 279.410156 177.234375 279.089844 180.410156 279.074219 183.90625 C 279.027344 197.59375 271.871094 222.167969 264.339844 234.5 C 261.789063 238.671875 254.78125 248.261719 248.761719 255.816406 C 242.738281 263.371094 237.8125 270.679688 237.8125 272.0625 C 237.8125 274.886719 242.199219 278.464844 245.660156 278.464844 C 246.917969 278.464844 249.464844 277.664063 251.324219 276.6875 Z M 163.277344 275.988281 C 173.992188 273.246094 185.753906 268.375 193.402344 263.511719 C 200.691406 258.871094 201.632813 257.296875 198.804688 254.46875 C 196.511719 252.171875 196.34375 252.199219 191.175781 255.738281 C 183.71875 260.847656 176.429688 264.449219 162.753906 269.785156 C 155.390625 272.660156 150.714844 275.191406 150.464844 276.445313 C 149.941406 279.046875 151.542969 278.988281 163.277344 275.988281 Z M 146.722656 275.371094 C 147.082031 272.289063 146.675781 270.816406 145.320313 270.296875 C 144.269531 269.894531 143.175781 270.265625 142.886719 271.128906 C 142.601563 271.988281 141.101563 273.957031 139.554688 275.503906 C 136.21875 278.839844 136.765625 279.714844 142.183594 279.714844 C 145.851563 279.714844 146.261719 279.324219 146.722656 275.371094 Z M 217.796875 287.703125 C 217.796875 286.28125 217.339844 286.234375 215.375 287.460938 C 214.046875 288.292969 213.21875 289.398438 213.539063 289.917969 C 214.453125 291.398438 217.796875 289.65625 217.796875 287.703125 Z M 165.019531 286.507813 C 171.429688 284.894531 181.179688 281.621094 186.6875 279.242188 C 196.742188 274.894531 210.328125 267.261719 210.25 266.003906 C 210.226563 265.632813 209.132813 264.039063 207.820313 262.464844 L 205.433594 259.601563 L 199.699219 263.980469 C 188.261719 272.710938 169.574219 279.917969 152.003906 282.375 C 141.105469 283.898438 138.359375 285.390625 139.757813 289.03125 C 140.753906 291.632813 147.238281 290.984375 165.019531 286.507813 Z M 228.242188 304.890625 C 230.679688 302.867188 230.960938 298.058594 228.742188 296.28125 C 227.882813 295.59375 222.394531 294.746094 216.546875 294.394531 C 206.300781 293.785156 205.558594 293.925781 196.292969 298.308594 C 191.003906 300.8125 186.640625 303.21875 186.597656 303.660156 C 186.277344 307.046875 224.292969 308.167969 228.242188 304.890625 Z M 157.203125 307.15625 C 174.957031 303.96875 190.511719 297.886719 207.164063 287.621094 C 221.226563 278.953125 220.972656 279.25 217.425781 275.703125 C 215.769531 274.046875 214.160156 271.933594 213.851563 271.003906 C 213.441406 269.769531 211.347656 270.554688 206.109375 273.90625 C 188.757813 285.003906 163.679688 293.042969 142.328125 294.347656 C 131.347656 295.019531 129.839844 295.40625 128.164063 297.957031 C 122.9375 305.9375 137.789063 310.640625 157.203125 307.15625 Z M 132.746094 311.042969 C 127.523438 309.714844 122.71875 304.53125 122.71875 300.230469 C 122.71875 296.25 127.953125 290.972656 131.902344 290.972656 C 134.335938 290.972656 135.058594 290.210938 135.503906 287.164063 C 135.992188 283.839844 135.277344 282.695313 129.921875 278.210938 L 123.777344 273.066406 L 120.710938 276.375 C 116.53125 280.882813 112.414063 281.667969 105.941406 279.199219 C 92.234375 273.964844 70.351563 239.738281 63.476563 212.785156 C 50.414063 161.554688 69.96875 99.566406 99.195313 99.566406 C 104.96875 99.566406 105.203125 99.425781 105.203125 96 C 105.203125 90.90625 111.640625 82.707031 119.671875 77.570313 C 126.15625 73.421875 126.515625 72.925781 125.808594 69.144531 C 125.207031 65.953125 125.648438 64.59375 127.953125 62.503906 C 132.945313 57.984375 141.519531 56.898438 176.425781 56.378906 C 220.792969 55.71875 229.058594 57.4375 229.058594 67.332031 C 229.058594 68.960938 228.472656 70.875 227.761719 71.589844 C 226.867188 72.480469 228.789063 74.320313 233.960938 77.511719 C 242.789063 82.960938 248.757813 89.730469 249.847656 95.535156 C 250.554688 99.308594 250.949219 99.628906 254.054688 98.945313 C 263.335938 96.90625 276.019531 104.484375 283.910156 116.78125 C 301.914063 144.839844 303.421875 198.964844 287.183594 234.351563 C 282.609375 244.320313 271.472656 261.976563 264.304688 270.621094 C 258.929688 277.105469 250.902344 282.21875 246.085938 282.21875 C 241.46875 282.21875 235.660156 279.035156 234.691406 275.976563 C 233.621094 272.605469 233.046875 272.78125 226.867188 278.371094 C 222.78125 282.070313 221.550781 284.082031 221.550781 287.078125 C 221.550781 290.519531 221.964844 290.972656 225.085938 290.972656 C 232.992188 290.972656 236.96875 301.566406 231.121094 307.058594 C 224.695313 313.09375 201.644531 313.460938 185.003906 307.792969 C 179.535156 305.929688 178.761719 305.96875 170.675781 308.511719 C 161.191406 311.496094 140.070313 312.90625 132.746094 311.042969 Z M 283.128906 312.796875 C 278.15625 309.3125 280.804688 299.730469 286.738281 299.730469 C 290.355469 299.730469 294.109375 303.550781 294.109375 307.238281 C 294.109375 310.707031 290.40625 314.742188 287.230469 314.742188 C 286.503906 314.742188 284.65625 313.867188 283.128906 312.796875 Z M 70.890625 316.53125 C 66.46875 312.105469 69.828125 304.734375 76.269531 304.734375 C 78.148438 304.734375 80.359375 305.410156 81.183594 306.238281 C 83.03125 308.082031 83.128906 312.832031 81.390625 316.078125 C 79.796875 319.054688 73.679688 319.320313 70.890625 316.53125 Z M 127.097656 349.773438 C 121.210938 347.601563 120.859375 347.066406 125.117188 346.761719 C 126.121094 346.6875 127.953125 343.453125 129.335938 339.300781 C 132.019531 331.253906 131.464844 329.949219 125.222656 329.640625 C 123.5 329.554688 125.472656 328.839844 129.601563 328.046875 C 134.554688 327.101563 137.222656 327.042969 137.449219 327.871094 C 137.640625 328.566406 136.375 333.308594 134.636719 338.417969 C 131.6875 347.089844 131.617188 347.851563 133.546875 349.988281 C 136.066406 352.773438 135.144531 352.742188 127.097656 349.773438 Z M 222.90625 356.964844 C 221.398438 352.976563 222.601563 351.757813 225.082031 354.765625 C 227.125 357.246094 227.296875 357.253906 231.558594 355.105469 C 239.339844 351.183594 237.929688 342.265625 229.527344 342.265625 C 227.203125 342.265625 225.304688 341.703125 225.304688 341.015625 C 225.304688 340.328125 226.121094 339.765625 227.117188 339.765625 C 231.449219 339.765625 232.039063 330.769531 227.855469 328.53125 C 224.386719 326.675781 220.15625 328.558594 218.378906 332.753906 L 216.726563 336.636719 L 215.546875 333.507813 C 214.539063 330.84375 214.851563 330.058594 217.644531 328.199219 C 228.347656 321.078125 239.960938 327.566406 233.363281 336.984375 C 231.515625 339.625 231.566406 339.765625 234.421875 339.765625 C 239.851563 339.765625 243.03125 345.753906 240.753906 351.691406 C 239.953125 353.773438 228.734375 359.742188 225.574219 359.769531 C 224.695313 359.773438 223.492188 358.515625 222.90625 356.964844 Z M 198.300781 351.921875 C 198.246094 350.738281 198.105469 347.519531 197.988281 344.769531 C 197.875 342.015625 197.359375 339.765625 196.84375 339.765625 C 196.070313 339.765625 189.605469 350.066406 187.945313 353.933594 C 187.699219 354.511719 189.949219 354.777344 192.949219 354.527344 C 197.148438 354.175781 198.382813 353.574219 198.300781 351.921875 Z M 199.445313 360.90625 L 198.667969 357.027344 L 190.71875 357.875 C 186.347656 358.34375 182.769531 358.441406 182.769531 358.089844 C 182.769531 357.738281 186.535156 351.398438 191.136719 343.996094 C 200.542969 328.867188 200.59375 328.871094 202.164063 345.082031 C 202.863281 352.289063 203.335938 353.523438 205.386719 353.523438 C 208.453125 353.523438 208.519531 355.542969 205.480469 356.339844 C 203.683594 356.808594 203.296875 357.8125 203.746094 360.863281 C 204.550781 366.351563 200.542969 366.390625 199.445313 360.90625 Z M 150.835938 363.722656 C 148.777344 363.0625 148.445313 362.203125 149.070313 359.15625 L 149.84375 355.402344 L 151.261719 358.84375 C 153.925781 365.296875 165.253906 362.332031 165.253906 355.183594 C 165.253906 352.496094 161.648438 348.519531 159.214844 348.519531 C 158.40625 348.519531 157.746094 347.957031 157.746094 347.269531 C 157.746094 346.582031 159.167969 346.019531 160.90625 346.019531 C 166.527344 346.019531 167.871094 337.5 162.6875 334.726563 C 158.722656 332.605469 155.714844 333.371094 153.957031 336.949219 L 152.265625 340.390625 L 151.773438 337.429688 C 151.503906 335.804688 151.851563 333.902344 152.546875 333.203125 C 154.183594 331.570313 164.507813 331.769531 167.738281 333.5 C 172.847656 336.234375 172.007813 344.898438 166.464844 346.65625 C 164.003906 347.4375 164.023438 347.550781 167.085938 349.960938 C 174.230469 355.582031 168.789063 364.910156 158.515625 364.660156 C 155.6875 364.589844 152.230469 364.167969 150.835938 363.722656 "/>
</g>
</g>
</svg>